<svg width="21" height="20" viewBox="0 0 21 20" fill="none" xmlns="http://www.w3.org/2000/svg">
<g clip-path="url(#clip0_450_4656)">
<mask id="mask0_450_4656" style="mask-type:alpha" maskUnits="userSpaceOnUse" x="2" y="0" width="17" height="20">
<path d="M2.18468 9.53102L9.88169 0.891526C10.1622 0.576616 10.6546 0.576617 10.9352 0.891526L18.6322 9.53102C18.8705 9.79849 18.8705 10.2021 18.6322 10.4696L10.9352 19.1091C10.6546 19.424 10.1622 19.424 9.88168 19.1091L2.18468 10.4696C1.94639 10.2021 1.94639 9.79849 2.18468 9.53102Z" fill="#D9D9D9"/>
</mask>
<g mask="url(#mask0_450_4656)">
<rect x="10.4082" y="-3.40332" width="11.1109" height="13.4036" fill="url(#paint0_linear_450_4656)"/>
<rect x="10.4082" y="10.0005" width="11.1109" height="13.4036" fill="url(#paint1_linear_450_4656)"/>
<rect x="-0.703125" y="-3.40332" width="11.1109" height="13.4036" fill="url(#paint2_linear_450_4656)"/>
<rect x="-0.703125" y="10.0005" width="11.1109" height="13.4036" fill="url(#paint3_linear_450_4656)"/>
<path d="M6.88086 10.0005L10.4081 -0.0522461L13.9354 10.0005H6.88086Z" fill="url(#paint4_linear_450_4656)"/>
<path d="M6.88086 10.0005L10.4081 20.0532L13.9354 10.0005H6.88086Z" fill="url(#paint5_linear_450_4656)"/>
</g>
</g>
<defs>
<linearGradient id="paint0_linear_450_4656" x1="14.3764" y1="-4.10877" x2="12.7009" y2="6.91395" gradientUnits="userSpaceOnUse">
<stop stop-color="#AAF7A8"/>
<stop offset="1" stop-color="#75EE81"/>
</linearGradient>
<linearGradient id="paint1_linear_450_4656" x1="14.3764" y1="9.29503" x2="12.7009" y2="20.3178" gradientUnits="userSpaceOnUse">
<stop stop-color="#AAF7A8"/>
<stop offset="1" stop-color="#75EE81"/>
</linearGradient>
<linearGradient id="paint2_linear_450_4656" x1="4.85233" y1="-3.40332" x2="4.85233" y2="10.0003" gradientUnits="userSpaceOnUse">
<stop stop-color="#DCFFEC"/>
<stop offset="1" stop-color="#B8FFCC"/>
</linearGradient>
<linearGradient id="paint3_linear_450_4656" x1="3.26506" y1="9.29503" x2="1.5896" y2="20.3178" gradientUnits="userSpaceOnUse">
<stop stop-color="#AAF7A8"/>
<stop offset="1" stop-color="#75EE81"/>
</linearGradient>
<linearGradient id="paint4_linear_450_4656" x1="10.4081" y1="-0.0522461" x2="10.4081" y2="10.0005" gradientUnits="userSpaceOnUse">
<stop stop-color="#C0FFD1"/>
<stop offset="1" stop-color="#A9EC9E"/>
</linearGradient>
<linearGradient id="paint5_linear_450_4656" x1="10.4081" y1="20.0532" x2="10.4081" y2="10.0005" gradientUnits="userSpaceOnUse">
<stop stop-color="#7BB97B"/>
<stop offset="1" stop-color="#6CDA51"/>
</linearGradient>
<clipPath id="clip0_450_4656">
<rect width="20" height="20" fill="white" transform="translate(0.5)"/>
</clipPath>
</defs>
</svg>
