<svg width="21" height="20" viewBox="0 0 21 20" fill="none" xmlns="http://www.w3.org/2000/svg">
<g clip-path="url(#clip0_450_4650)">
<mask id="mask0_450_4650" style="mask-type:alpha" maskUnits="userSpaceOnUse" x="1" y="0" width="19" height="20">
<path d="M1.93101 9.51621L9.86606 0.609518C10.1553 0.28487 10.6629 0.28487 10.9521 0.609518L18.8872 9.51621C19.1328 9.79196 19.1328 10.208 18.8872 10.4838L10.9521 19.3905C10.6629 19.7151 10.1553 19.7151 9.86606 19.3905L1.93101 10.4838C1.68535 10.208 1.68535 9.79196 1.93101 9.51621Z" fill="#D9D9D9"/>
</mask>
<g mask="url(#mask0_450_4650)">
<rect x="10.4092" y="-3.81836" width="11.4545" height="13.8182" fill="url(#paint0_linear_450_4650)"/>
<rect x="10.4092" y="10" width="11.4545" height="13.8182" fill="url(#paint1_linear_450_4650)"/>
<rect x="-1.0459" y="-3.81836" width="11.4545" height="13.8182" fill="url(#paint2_linear_450_4650)"/>
<rect x="-1.0459" y="10" width="11.4545" height="13.8182" fill="url(#paint3_linear_450_4650)"/>
<path d="M6.0459 10.0908L10.4095 5.09082L14.7732 10.0908L10.4095 15.0908L6.0459 10.0908Z" fill="url(#paint4_linear_450_4650)"/>
</g>
</g>
<defs>
<linearGradient id="paint0_linear_450_4650" x1="16.1365" y1="-3.81836" x2="16.1365" y2="9.99982" gradientUnits="userSpaceOnUse">
<stop stop-color="#E7EBF1"/>
<stop offset="1" stop-color="#C3C8D3"/>
</linearGradient>
<linearGradient id="paint1_linear_450_4650" x1="14.5001" y1="9.27273" x2="12.7728" y2="20.6364" gradientUnits="userSpaceOnUse">
<stop stop-color="#E7ECF0"/>
<stop offset="1" stop-color="#D6E1E7"/>
</linearGradient>
<linearGradient id="paint2_linear_450_4650" x1="4.68137" y1="-3.81836" x2="4.68137" y2="9.99982" gradientUnits="userSpaceOnUse">
<stop stop-color="white"/>
<stop offset="1" stop-color="#E9EBEE"/>
</linearGradient>
<linearGradient id="paint3_linear_450_4650" x1="4.68137" y1="10" x2="4.68137" y2="23.8182" gradientUnits="userSpaceOnUse">
<stop stop-color="#D2D6DB"/>
<stop offset="1" stop-color="#9EA6AC"/>
</linearGradient>
<linearGradient id="paint4_linear_450_4650" x1="10.4095" y1="5.09082" x2="10.4095" y2="15.0908" gradientUnits="userSpaceOnUse">
<stop stop-color="white"/>
<stop offset="1" stop-color="#A9B9C7"/>
</linearGradient>
<clipPath id="clip0_450_4650">
<rect width="20" height="20" fill="white" transform="translate(0.5)"/>
</clipPath>
</defs>
</svg>
