<svg width="21" height="20" viewBox="0 0 21 20" fill="none" xmlns="http://www.w3.org/2000/svg">
<g clip-path="url(#clip0_450_4668)">
<mask id="mask0_450_4668" style="mask-type:alpha" maskUnits="userSpaceOnUse" x="1" y="0" width="19" height="19">
<path d="M10.8039 1.22069C10.6178 0.921484 10.1824 0.921484 9.99635 1.22069L7.10396 5.87268C7.0385 5.97796 6.93452 6.0535 6.81418 6.08322L1.49607 7.3965C1.15402 7.48097 1.01945 7.89512 1.24653 8.16451L4.77704 12.3529C4.85694 12.4477 4.89665 12.5699 4.88773 12.6935L4.49334 18.1572C4.46798 18.5086 4.82028 18.7646 5.14665 18.6318L10.221 16.5684C10.3358 16.5217 10.4644 16.5217 10.5792 16.5684L15.6536 18.6318C15.9799 18.7646 16.3322 18.5086 16.3069 18.1572L15.9125 12.6935C15.9036 12.5699 15.9433 12.4477 16.0232 12.3529L19.5537 8.16451C19.7808 7.89512 19.6462 7.48097 19.3042 7.3965L13.986 6.08322C13.8657 6.0535 13.7617 5.97796 13.6963 5.87268L10.8039 1.22069Z" fill="#D9D9D9"/>
</mask>
<g mask="url(#mask0_450_4668)">
<path d="M10.3211 10.4764L10.4004 0.571289L6.91378 5.95968L10.3211 10.4764Z" fill="url(#paint0_linear_450_4668)"/>
<path d="M10.3213 10.4764L10.4005 0.571289L13.8871 5.95968L10.3213 10.4764Z" fill="url(#paint1_linear_450_4668)"/>
<path d="M10.3211 10.4766L16.3761 18.9722L10.4004 16.6574L10.3211 10.4766Z" fill="url(#paint2_linear_450_4668)"/>
<path d="M10.3219 10.4767L16.377 18.9722L15.948 12.4973L10.3219 10.4767Z" fill="url(#paint3_linear_450_4668)"/>
<path d="M10.3204 10.476L20.0278 7.59155L15.9861 12.5363L10.3204 10.476Z" fill="url(#paint4_linear_450_4668)"/>
<path d="M10.3199 10.4762L20.0273 7.5918L13.8065 5.99916L10.3199 10.4762Z" fill="url(#paint5_linear_450_4668)"/>
<path d="M10.3212 10.4769L0.693472 7.50539L4.83677 12.6715L10.3212 10.4769Z" fill="url(#paint6_linear_450_4668)"/>
<path d="M10.321 10.4766L0.217773 7.42578L6.99289 5.95982L10.321 10.4766Z" fill="url(#paint7_linear_450_4668)"/>
<path d="M10.3206 10.4767L4.41718 18.9555L10.3999 16.6575L10.3206 10.4767Z" fill="url(#paint8_linear_450_4668)"/>
<path d="M10.3205 10.4768L4.41699 18.9556L4.7614 12.5753L10.3205 10.4768Z" fill="url(#paint9_linear_450_4668)"/>
</g>
</g>
<defs>
<linearGradient id="paint0_linear_450_4668" x1="8.65709" y1="0.571289" x2="8.65709" y2="10.4764" gradientUnits="userSpaceOnUse">
<stop stop-color="#FDF8FF"/>
<stop offset="1" stop-color="#E3C6FD"/>
</linearGradient>
<linearGradient id="paint1_linear_450_4668" x1="12.1042" y1="0.571289" x2="12.1042" y2="10.4764" gradientUnits="userSpaceOnUse">
<stop stop-color="#EAAEF9"/>
<stop offset="1" stop-color="#AF6BF6"/>
</linearGradient>
<linearGradient id="paint2_linear_450_4668" x1="8.87713" y1="11.5266" x2="15.0121" y2="19.964" gradientUnits="userSpaceOnUse">
<stop stop-color="#86A9FF"/>
<stop offset="1" stop-color="#B8B0FF"/>
</linearGradient>
<linearGradient id="paint3_linear_450_4668" x1="11.6416" y1="9.51712" x2="17.7765" y2="17.9545" gradientUnits="userSpaceOnUse">
<stop stop-color="#7D7BEC"/>
<stop offset="1" stop-color="#BBB9FC"/>
</linearGradient>
<linearGradient id="paint4_linear_450_4668" x1="16.2964" y1="12.4339" x2="15.1265" y2="8.8896" gradientUnits="userSpaceOnUse">
<stop stop-color="#99AFF8"/>
<stop offset="1" stop-color="#C7A6FF"/>
</linearGradient>
<linearGradient id="paint5_linear_450_4668" x1="14.136" y1="5.89041" x2="15.2212" y2="9.17818" gradientUnits="userSpaceOnUse">
<stop stop-color="#BA94F1"/>
<stop offset="1" stop-color="#B9E7FF"/>
</linearGradient>
<linearGradient id="paint6_linear_450_4668" x1="7.66666" y1="11.6656" x2="1.84245" y2="8.6544" gradientUnits="userSpaceOnUse">
<stop stop-color="#D57DFF"/>
<stop offset="1" stop-color="#C79CFF"/>
</linearGradient>
<linearGradient id="paint7_linear_450_4668" x1="5.80427" y1="7.6635" x2="8.33999" y2="9.76339" gradientUnits="userSpaceOnUse">
<stop stop-color="#F0D4FF"/>
<stop offset="1" stop-color="#E8AAFD"/>
</linearGradient>
<linearGradient id="paint8_linear_450_4668" x1="11.8164" y1="11.5644" x2="5.74194" y2="19.9187" gradientUnits="userSpaceOnUse">
<stop stop-color="#8B80FC"/>
<stop offset="1" stop-color="#8BC2F9"/>
</linearGradient>
<linearGradient id="paint9_linear_450_4668" x1="9.08683" y1="9.5798" x2="3.01229" y2="17.9342" gradientUnits="userSpaceOnUse">
<stop stop-color="#BD8BFB"/>
<stop offset="1" stop-color="#B8D3FF"/>
</linearGradient>
<clipPath id="clip0_450_4668">
<rect width="20" height="20" fill="white" transform="translate(0.5)"/>
</clipPath>
</defs>
</svg>
