<svg width="31" height="30" viewBox="0 0 31 30" fill="none" xmlns="http://www.w3.org/2000/svg">
<g clip-path="url(#clip0_403_6764)">
<g filter="url(#filter0_bdi_403_6764)">
<path d="M18.9799 14.1726C18.8147 13.915 18.5799 13.6574 18.2756 13.4942C18.0322 13.3739 17.8757 13.1764 17.7365 12.9446C17.2931 12.206 17.5539 11.2355 18.293 10.7976C19.1625 10.308 19.4408 9.21737 18.9364 8.36717L18.3539 7.35379C17.8583 6.50358 16.7714 6.203 15.9106 6.7011C15.1454 7.11332 14.1629 6.83851 13.7194 6.10853C13.5803 5.86807 13.5021 5.61043 13.5194 5.35279C13.5455 5.01786 13.4412 4.7001 13.2847 4.44246C12.963 3.91001 12.3804 3.54932 11.737 3.54932H10.511C9.87623 3.56649 9.29367 3.91001 8.97195 4.44246C8.80675 4.7001 8.7111 5.01786 8.72849 5.35279C8.74588 5.61043 8.66762 5.86807 8.5285 6.10853C8.08506 6.83851 7.10252 7.11332 6.34606 6.7011C5.47655 6.203 4.39837 6.50358 3.89406 7.35379L3.31149 8.36717C2.81588 9.21737 3.09412 10.308 3.95492 10.7976C4.694 11.2355 4.95485 12.206 4.5201 12.9446C4.37229 13.1764 4.21578 13.3739 3.97231 13.4942C3.67668 13.6574 3.41583 13.915 3.27671 14.1726C2.955 14.7051 2.97239 15.3749 3.2941 15.9332L3.89406 16.9637C4.21578 17.5133 4.81573 17.8569 5.44177 17.8569C5.7374 17.8569 6.0852 17.771 6.36345 17.5992C6.58082 17.4532 6.84167 17.4017 7.12861 17.4017C7.98941 17.4017 8.7111 18.1145 8.72849 18.9647C8.72849 19.9523 9.52843 20.7252 10.5371 20.7252H11.7196C12.7195 20.7252 13.5194 19.9523 13.5194 18.9647C13.5455 18.1145 14.2672 17.4017 15.128 17.4017C15.4063 17.4017 15.6671 17.4532 15.8932 17.5992C16.1714 17.771 16.5105 17.8569 16.8149 17.8569C17.4322 17.8569 18.0322 17.5133 18.3539 16.9637L18.9625 15.9332C19.2755 15.3578 19.3016 14.7051 18.9799 14.1726Z" fill="url(#paint0_linear_403_6764)" fill-opacity="0.95" shape-rendering="crispEdges"/>
</g>
<g opacity="0.5" filter="url(#filter1_f_403_6764)">
<path d="M15.2307 13.233C15.1455 13.1004 15.0244 12.9678 14.8675 12.8838C14.742 12.8219 14.6613 12.7203 14.5895 12.6009C14.3609 12.2208 14.4954 11.7213 14.8765 11.4958C15.3248 11.2439 15.4683 10.6825 15.2082 10.2449L14.9079 9.72332C14.6523 9.28571 14.0919 9.131 13.648 9.38738C13.2535 9.59955 12.7469 9.4581 12.5182 9.08238C12.4465 8.95861 12.4061 8.826 12.4151 8.69339C12.4286 8.521 12.3748 8.35745 12.2941 8.22485C12.1282 7.95079 11.8278 7.76514 11.496 7.76514H10.8639C10.5366 7.77398 10.2362 7.95079 10.0703 8.22485C9.98512 8.35745 9.9358 8.521 9.94477 8.69339C9.95373 8.826 9.91338 8.95861 9.84165 9.08238C9.613 9.4581 9.10638 9.59955 8.71632 9.38738C8.26799 9.131 7.71205 9.28571 7.45201 9.72332L7.15163 10.2449C6.89607 10.6825 7.03954 11.2439 7.4834 11.4958C7.86448 11.7213 7.99898 12.2208 7.77481 12.6009C7.6986 12.7203 7.6179 12.8219 7.49236 12.8838C7.33993 12.9678 7.20543 13.1004 7.13369 13.233C6.96781 13.5071 6.97677 13.8519 7.14266 14.1392L7.45201 14.6696C7.6179 14.9525 7.92725 15.1293 8.25005 15.1293C8.40249 15.1293 8.58182 15.0851 8.72529 14.9967C8.83737 14.9216 8.97187 14.895 9.11983 14.895C9.56368 14.895 9.9358 15.2619 9.94477 15.6995C9.94477 16.2079 10.3572 16.6057 10.8773 16.6057H11.487C12.0026 16.6057 12.4151 16.2079 12.4151 15.6995C12.4286 15.2619 12.8007 14.895 13.2445 14.895C13.388 14.895 13.5225 14.9216 13.6391 14.9967C13.7825 15.0851 13.9574 15.1293 14.1143 15.1293C14.4326 15.1293 14.742 14.9525 14.9079 14.6696L15.2217 14.1392C15.3831 13.843 15.3965 13.5071 15.2307 13.233Z" fill="#E31352"/>
</g>
<g filter="url(#filter2_b_403_6764)">
<mask id="path-3-outside-1_403_6764" maskUnits="userSpaceOnUse" x="6.84277" y="4.82227" width="21" height="22" fill="black">
<rect fill="white" x="6.84277" y="4.82227" width="21" height="22"/>
<path d="M27.161 18.5807C26.9607 18.2712 26.6761 17.9618 26.3072 17.7659C26.0121 17.6215 25.8224 17.3842 25.6537 17.1058C25.1161 16.2188 25.4324 15.0533 26.3283 14.5273C27.3823 13.9394 27.7196 12.6295 27.1083 11.6084L26.4021 10.3914C25.8013 9.37027 24.4837 9.00929 23.4402 9.6075C22.5127 10.1026 21.3216 9.77252 20.784 8.89583C20.6154 8.60704 20.5205 8.29762 20.5416 7.9882C20.5732 7.58596 20.4467 7.20434 20.257 6.89492C19.867 6.25545 19.1608 5.82227 18.3808 5.82227H16.8946C16.1251 5.84289 15.4189 6.25545 15.0289 6.89492C14.8287 7.20434 14.7127 7.58596 14.7338 7.9882C14.7549 8.29762 14.66 8.60704 14.4914 8.89583C13.9538 9.77252 12.7627 10.1026 11.8457 9.6075C10.7917 9.00929 9.48466 9.37027 8.87332 10.3914L8.16711 11.6084C7.5663 12.6295 7.90359 13.9394 8.9471 14.5273C9.84304 15.0533 10.1593 16.2188 9.63223 17.1058C9.45304 17.3842 9.26331 17.6215 8.96818 17.7659C8.6098 17.9618 8.29359 18.2712 8.12494 18.5807C7.73495 19.2201 7.75603 20.0246 8.14602 20.695L8.87332 21.9327C9.26331 22.5928 9.9906 23.0054 10.7495 23.0054C11.1079 23.0054 11.5295 22.9022 11.8668 22.6959C12.1303 22.5206 12.4465 22.4587 12.7944 22.4587C13.8379 22.4587 14.7127 23.3148 14.7338 24.3359C14.7338 25.522 15.7035 26.4502 16.9262 26.4502H18.3597C19.5719 26.4502 20.5416 25.522 20.5416 24.3359C20.5732 23.3148 21.4481 22.4587 22.4916 22.4587C22.8289 22.4587 23.1451 22.5206 23.4191 22.6959C23.7564 22.9022 24.1675 23.0054 24.5364 23.0054C25.2848 23.0054 26.0121 22.5928 26.4021 21.9327L27.1399 20.695C27.5194 20.004 27.551 19.2201 27.161 18.5807Z"/>
</mask>
<path d="M27.161 18.5807C26.9607 18.2712 26.6761 17.9618 26.3072 17.7659C26.0121 17.6215 25.8224 17.3842 25.6537 17.1058C25.1161 16.2188 25.4324 15.0533 26.3283 14.5273C27.3823 13.9394 27.7196 12.6295 27.1083 11.6084L26.4021 10.3914C25.8013 9.37027 24.4837 9.00929 23.4402 9.6075C22.5127 10.1026 21.3216 9.77252 20.784 8.89583C20.6154 8.60704 20.5205 8.29762 20.5416 7.9882C20.5732 7.58596 20.4467 7.20434 20.257 6.89492C19.867 6.25545 19.1608 5.82227 18.3808 5.82227H16.8946C16.1251 5.84289 15.4189 6.25545 15.0289 6.89492C14.8287 7.20434 14.7127 7.58596 14.7338 7.9882C14.7549 8.29762 14.66 8.60704 14.4914 8.89583C13.9538 9.77252 12.7627 10.1026 11.8457 9.6075C10.7917 9.00929 9.48466 9.37027 8.87332 10.3914L8.16711 11.6084C7.5663 12.6295 7.90359 13.9394 8.9471 14.5273C9.84304 15.0533 10.1593 16.2188 9.63223 17.1058C9.45304 17.3842 9.26331 17.6215 8.96818 17.7659C8.6098 17.9618 8.29359 18.2712 8.12494 18.5807C7.73495 19.2201 7.75603 20.0246 8.14602 20.695L8.87332 21.9327C9.26331 22.5928 9.9906 23.0054 10.7495 23.0054C11.1079 23.0054 11.5295 22.9022 11.8668 22.6959C12.1303 22.5206 12.4465 22.4587 12.7944 22.4587C13.8379 22.4587 14.7127 23.3148 14.7338 24.3359C14.7338 25.522 15.7035 26.4502 16.9262 26.4502H18.3597C19.5719 26.4502 20.5416 25.522 20.5416 24.3359C20.5732 23.3148 21.4481 22.4587 22.4916 22.4587C22.8289 22.4587 23.1451 22.5206 23.4191 22.6959C23.7564 22.9022 24.1675 23.0054 24.5364 23.0054C25.2848 23.0054 26.0121 22.5928 26.4021 21.9327L27.1399 20.695C27.5194 20.004 27.551 19.2201 27.161 18.5807Z" fill="#FF749F" fill-opacity="0.35"/>
<path d="M26.9489 18.7179C27.0247 18.835 27.1811 18.8685 27.2982 18.7927C27.4153 18.7169 27.4488 18.5605 27.373 18.4434L26.9489 18.7179ZM26.3072 17.7659L26.4258 17.5427L26.4182 17.539L26.3072 17.7659ZM25.6537 17.1058L25.8698 16.9749L25.8697 16.9748L25.6537 17.1058ZM26.3283 14.5273L26.2052 14.3066L26.2004 14.3094L26.3283 14.5273ZM27.1083 11.6084L26.8898 11.7352L26.8916 11.7382L27.1083 11.6084ZM26.4021 10.3914L26.6206 10.2646L26.6198 10.2633L26.4021 10.3914ZM23.4402 9.6075L23.5592 9.83043L23.5658 9.82663L23.4402 9.6075ZM20.784 8.89583L20.5659 9.02324L20.5687 9.02787L20.784 8.89583ZM20.5416 7.9882L20.2898 7.96841L20.2896 7.97103L20.5416 7.9882ZM20.257 6.89492L20.0414 7.02644L20.0417 7.02695L20.257 6.89492ZM16.8946 5.82227V5.56959L16.8878 5.56977L16.8946 5.82227ZM15.0289 6.89492L15.2411 7.03221L15.2446 7.02644L15.0289 6.89492ZM14.7338 7.9882L14.4815 8.00142L14.4818 8.00537L14.7338 7.9882ZM14.4914 8.89583L14.7068 9.0279L14.7095 9.02321L14.4914 8.89583ZM11.8457 9.6075L11.721 9.82722L11.7257 9.82976L11.8457 9.6075ZM8.87332 10.3914L8.65658 10.2616L8.65485 10.2646L8.87332 10.3914ZM8.16711 11.6084L8.38481 11.7365L8.38558 11.7352L8.16711 11.6084ZM8.9471 14.5273L9.075 14.3094L9.07108 14.3072L8.9471 14.5273ZM9.63223 17.1058L9.84478 17.2425L9.84938 17.2348L9.63223 17.1058ZM8.96818 17.7659L8.85706 17.5387L8.847 17.5442L8.96818 17.7659ZM8.12494 18.5807L8.34085 18.7123L8.34673 18.7015L8.12494 18.5807ZM8.14602 20.695L7.92769 20.822L7.92825 20.823L8.14602 20.695ZM8.87332 21.9327L8.65554 22.0607L8.65585 22.0612L8.87332 21.9327ZM11.8668 22.6959L11.9987 22.9116L12.0067 22.9062L11.8668 22.6959ZM14.7338 24.3359H14.9864L14.9863 24.3306L14.7338 24.3359ZM20.5416 24.3359L20.289 24.328V24.3359H20.5416ZM23.4191 22.6959L23.283 22.9087L23.2874 22.9114L23.4191 22.6959ZM26.4021 21.9327L26.1851 21.8034L26.1846 21.8042L26.4021 21.9327ZM27.1399 20.695L27.357 20.8244L27.3613 20.8166L27.1399 20.695ZM27.3766 18.4491C27.304 18.33 27.1486 18.2924 27.0295 18.365C26.9104 18.4376 26.8727 18.5931 26.9453 18.7122L27.3766 18.4491ZM27.373 18.4434C27.1569 18.1094 26.8431 17.7645 26.4257 17.5428L26.1887 17.9889C26.5091 18.1591 26.7646 18.4331 26.9489 18.7179L27.373 18.4434ZM26.4182 17.539C26.1874 17.426 26.0289 17.2376 25.8698 16.9749L25.4377 17.2366C25.6158 17.5308 25.8368 17.8169 26.1962 17.9927L26.4182 17.539ZM25.8697 16.9748C25.4079 16.2129 25.6771 15.2025 26.4562 14.7451L26.2004 14.3094C25.1876 14.9041 24.8244 16.2246 25.4377 17.2367L25.8697 16.9748ZM26.4513 14.7479C27.6311 14.0898 28.0088 12.6208 27.325 11.4787L26.8916 11.7382C27.4304 12.6382 27.1336 13.7889 26.2053 14.3067L26.4513 14.7479ZM27.3268 11.4816L26.6206 10.2646L26.1836 10.5181L26.8898 11.7352L27.3268 11.4816ZM26.6198 10.2633C25.9493 9.12381 24.4791 8.72081 23.3146 9.38836L23.5658 9.82663C24.4884 9.29776 25.6532 9.61674 26.1844 10.5195L26.6198 10.2633ZM23.3213 9.38466C22.5113 9.81698 21.4669 9.52624 20.9994 8.7638L20.5687 9.02787C21.1763 10.0188 22.514 10.3882 23.5591 9.83033L23.3213 9.38466ZM21.0021 8.76846C20.8514 8.51037 20.7769 8.25113 20.7936 8.00537L20.2896 7.97103C20.2642 8.34411 20.3793 8.70371 20.5659 9.02321L21.0021 8.76846ZM20.7934 8.008C20.8301 7.54055 20.6829 7.10632 20.4723 6.76288L20.0417 7.02695C20.2105 7.30236 20.3163 7.63136 20.2898 7.96841L20.7934 8.008ZM20.4726 6.7634C20.0401 6.05421 19.2551 5.56968 18.3808 5.56968V6.07485C19.0665 6.07485 19.6939 6.4567 20.0414 7.02644L20.4726 6.7634ZM18.3808 5.56968H16.8946V6.07485H18.3808V5.56968ZM16.8878 5.56977C16.0332 5.59268 15.2481 6.05038 14.8133 6.7634L15.2446 7.02644C15.5897 6.46053 16.2171 6.09311 16.9014 6.07476L16.8878 5.56977ZM14.8169 6.75767C14.5898 7.10851 14.4575 7.54229 14.4816 8.00142L14.986 7.97498C14.9679 7.62962 15.0675 7.30017 15.241 7.03216L14.8169 6.75767ZM14.4818 8.00537C14.4985 8.25113 14.424 8.51037 14.2733 8.76846L14.7095 9.02321C14.8961 8.70371 15.0112 8.34411 14.9858 7.97103L14.4818 8.00537ZM14.276 8.7638C13.808 9.52706 12.7638 9.8161 11.9657 9.38523L11.7257 9.82976C12.7617 10.389 14.0996 10.018 14.7067 9.02787L14.276 8.7638ZM11.9704 9.38782C10.7954 8.72099 9.3375 9.12436 8.6566 10.2616L9.09003 10.5211C9.63183 9.61619 10.7879 9.29758 11.721 9.82717L11.9704 9.38782ZM8.65485 10.2646L7.94863 11.4816L8.38558 11.7352L9.09179 10.5181L8.65485 10.2646ZM7.94941 11.4803C7.27805 12.6213 7.65452 14.089 8.82312 14.7473L9.07108 14.3072C8.15267 13.7898 7.85455 12.6377 8.3848 11.7365L7.94941 11.4803ZM8.81921 14.7451C9.59831 15.2025 9.86829 16.214 9.41508 16.9767L9.84938 17.2348C10.4502 16.2235 10.0878 14.9041 9.07498 14.3094L8.81921 14.7451ZM9.41981 16.9691C9.24749 17.2369 9.08869 17.4257 8.85717 17.539L9.07919 17.9927C9.43793 17.8172 9.65859 17.5316 9.84464 17.2424L9.41981 16.9691ZM8.847 17.5442C8.45122 17.7607 8.09762 18.103 7.90316 18.4598L8.34673 18.7015C8.48956 18.4395 8.76839 18.163 9.08936 17.9875L8.847 17.5442ZM7.9093 18.4491C7.46607 19.1759 7.49607 20.0801 7.92769 20.822L8.36436 20.568C8.01598 19.9692 8.00383 19.2644 8.34059 18.7122L7.9093 18.4491ZM7.92825 20.823L8.65554 22.0607L9.09109 21.8047L8.3638 20.5671L7.92825 20.823ZM8.65585 22.0612C9.09132 22.7982 9.90133 23.2579 10.7495 23.2579V22.7528C10.0799 22.7528 9.43531 22.3873 9.09078 21.8042L8.65585 22.0612ZM10.7495 23.2579C11.1499 23.2579 11.618 23.1442 11.9986 22.9114L11.735 22.4805C11.4411 22.6602 11.0659 22.7528 10.7495 22.7528V23.2579ZM12.0067 22.9062C12.2135 22.7686 12.4742 22.7113 12.7944 22.7113V22.2061C12.4189 22.2061 12.0471 22.2726 11.7269 22.4856L12.0067 22.9062ZM12.7944 22.7113C13.7024 22.7113 14.4631 23.4594 14.4813 24.3411L14.9863 24.3306C14.9624 23.1701 13.9733 22.2061 12.7944 22.2061V22.7113ZM14.4812 24.3359C14.4812 25.6706 15.5733 26.7028 16.9262 26.7028V26.1976C15.8338 26.1976 14.9864 25.3734 14.9864 24.3359H14.4812ZM16.9262 26.7028H18.3597V26.1976H16.9262V26.7028ZM18.3597 26.7028C19.7029 26.7028 20.7942 25.6698 20.7942 24.3359H20.289C20.289 25.3742 19.4408 26.1976 18.3597 26.1976V26.7028ZM20.7941 24.3437C20.8214 23.4595 21.5841 22.7113 22.4916 22.7113V22.2061C21.3121 22.2061 20.325 23.1701 20.2891 24.328L20.7941 24.3437ZM22.4916 22.7113C22.7991 22.7113 23.0628 22.7678 23.283 22.9087L23.5553 22.4832C23.2274 22.2734 22.8587 22.2061 22.4916 22.2061V22.7113ZM23.2874 22.9114C23.6675 23.1439 24.1248 23.2579 24.5364 23.2579V22.7528C24.2102 22.7528 23.8454 22.6605 23.5509 22.4805L23.2874 22.9114ZM24.5364 23.2579C25.3747 23.2579 26.1844 22.7977 26.6195 22.0612L26.1846 21.8042C25.8397 22.3879 25.1948 22.7528 24.5364 22.7528V23.2579ZM26.619 22.062L27.3569 20.8244L26.923 20.5657L26.1851 21.8034L26.619 22.062ZM27.3613 20.8166C27.7764 20.0607 27.8217 19.179 27.3766 18.4491L26.9453 18.7122C27.2802 19.2613 27.2624 19.9473 26.9185 20.5735L27.3613 20.8166Z" fill="url(#paint1_linear_403_6764)" mask="url(#path-3-outside-1_403_6764)"/>
</g>
<g filter="url(#filter3_bd_403_6764)">
<path d="M17.6566 18.9744C16.0017 18.9744 14.6631 17.6851 14.6631 16.0658C14.6631 14.4465 16.0017 13.147 17.6566 13.147C19.3114 13.147 20.6184 14.4465 20.6184 16.0658C20.6184 17.6851 19.3114 18.9744 17.6566 18.9744Z" fill="url(#paint2_linear_403_6764)"/>
<path d="M17.6566 18.9239C16.0281 18.9239 14.7136 17.6557 14.7136 16.0658C14.7136 14.4757 16.0283 13.1975 17.6566 13.1975C19.2841 13.1975 20.5679 14.475 20.5679 16.0658C20.5679 17.6564 19.2843 18.9239 17.6566 18.9239Z" stroke="url(#paint3_linear_403_6764)" stroke-width="0.101035"/>
</g>
</g>
<defs>
<filter id="filter0_bdi_403_6764" x="-1.6238" y="0.74867" width="25.5015" height="26.5113" filterUnits="userSpaceOnUse" color-interpolation-filters="sRGB">
<feFlood flood-opacity="0" result="BackgroundImageFix"/>
<feGaussianBlur in="BackgroundImageFix" stdDeviation="1.02828"/>
<feComposite in2="SourceAlpha" operator="in" result="effect1_backgroundBlur_403_6764"/>
<feColorMatrix in="SourceAlpha" type="matrix" values="0 0 0 0 0 0 0 0 0 0 0 0 0 0 0 0 0 0 127 0" result="hardAlpha"/>
<feOffset dy="1.8671"/>
<feGaussianBlur stdDeviation="2.33387"/>
<feComposite in2="hardAlpha" operator="out"/>
<feColorMatrix type="matrix" values="0 0 0 0 0.666667 0 0 0 0 0 0 0 0 0 0.2 0 0 0 0.15 0"/>
<feBlend mode="normal" in2="effect1_backgroundBlur_403_6764" result="effect2_dropShadow_403_6764"/>
<feBlend mode="normal" in="SourceGraphic" in2="effect2_dropShadow_403_6764" result="shape"/>
<feColorMatrix in="SourceAlpha" type="matrix" values="0 0 0 0 0 0 0 0 0 0 0 0 0 0 0 0 0 0 127 0" result="hardAlpha"/>
<feOffset dx="-0.539849" dy="-1.02828"/>
<feGaussianBlur stdDeviation="0.115682"/>
<feComposite in2="hardAlpha" operator="arithmetic" k2="-1" k3="1"/>
<feColorMatrix type="matrix" values="0 0 0 0 1 0 0 0 0 0.8 0 0 0 0 0.896 0 0 0 0.5 0"/>
<feBlend mode="normal" in2="shape" result="effect3_innerShadow_403_6764"/>
</filter>
<filter id="filter1_f_403_6764" x="2.97228" y="3.72374" width="16.4178" height="16.9231" filterUnits="userSpaceOnUse" color-interpolation-filters="sRGB">
<feFlood flood-opacity="0" result="BackgroundImageFix"/>
<feBlend mode="normal" in="SourceGraphic" in2="BackgroundImageFix" result="shape"/>
<feGaussianBlur stdDeviation="2.0207" result="effect1_foregroundBlur_403_6764"/>
</filter>
<filter id="filter2_b_403_6764" x="1.52775" y="-0.49227" width="32.2267" height="33.257" filterUnits="userSpaceOnUse" color-interpolation-filters="sRGB">
<feFlood flood-opacity="0" result="BackgroundImageFix"/>
<feGaussianBlur in="BackgroundImageFix" stdDeviation="3.03105"/>
<feComposite in2="SourceAlpha" operator="in" result="effect1_backgroundBlur_403_6764"/>
<feBlend mode="normal" in="SourceGraphic" in2="effect1_backgroundBlur_403_6764" result="shape"/>
</filter>
<filter id="filter3_bd_403_6764" x="10.8743" y="9.35816" width="13.5327" height="13.4053" filterUnits="userSpaceOnUse" color-interpolation-filters="sRGB">
<feFlood flood-opacity="0" result="BackgroundImageFix"/>
<feGaussianBlur in="BackgroundImageFix" stdDeviation="1.8944"/>
<feComposite in2="SourceAlpha" operator="in" result="effect1_backgroundBlur_403_6764"/>
<feColorMatrix in="SourceAlpha" type="matrix" values="0 0 0 0 0 0 0 0 0 0 0 0 0 0 0 0 0 0 127 0" result="hardAlpha"/>
<feOffset dx="1.26294" dy="1.26294"/>
<feGaussianBlur stdDeviation="1.26294"/>
<feColorMatrix type="matrix" values="0 0 0 0 1 0 0 0 0 0.321569 0 0 0 0 0.54902 0 0 0 0.5 0"/>
<feBlend mode="normal" in2="effect1_backgroundBlur_403_6764" result="effect2_dropShadow_403_6764"/>
<feBlend mode="normal" in="SourceGraphic" in2="effect2_dropShadow_403_6764" result="shape"/>
</filter>
<linearGradient id="paint0_linear_403_6764" x1="5.23533" y1="5.92439" x2="21.6189" y2="15.3246" gradientUnits="userSpaceOnUse">
<stop stop-color="#FF166A"/>
<stop offset="1" stop-color="#FF6BD6"/>
</linearGradient>
<linearGradient id="paint1_linear_403_6764" x1="10.9622" y1="8.22545" x2="24.2468" y2="23.8561" gradientUnits="userSpaceOnUse">
<stop stop-color="white" stop-opacity="0.25"/>
<stop offset="1" stop-color="white" stop-opacity="0"/>
</linearGradient>
<linearGradient id="paint2_linear_403_6764" x1="20.1962" y1="14.1993" x2="13.5628" y2="14.4203" gradientUnits="userSpaceOnUse">
<stop stop-color="white"/>
<stop offset="1" stop-color="white" stop-opacity="0.2"/>
</linearGradient>
<linearGradient id="paint3_linear_403_6764" x1="15.6111" y1="13.8259" x2="19.3105" y2="18.5083" gradientUnits="userSpaceOnUse">
<stop stop-color="white" stop-opacity="0.25"/>
<stop offset="1" stop-color="white" stop-opacity="0"/>
</linearGradient>
<clipPath id="clip0_403_6764">
<rect width="30" height="30" fill="white" transform="translate(0.242188)"/>
</clipPath>
</defs>
</svg>
