<svg width="31" height="30" viewBox="0 0 31 30" fill="none" xmlns="http://www.w3.org/2000/svg">
<g filter="url(#filter0_di_403_6744)">
<path d="M15.8495 24.9956C16.0654 24.9956 16.2726 25.0821 16.4253 25.236C16.578 25.3899 16.6638 25.5987 16.6638 25.8164C16.6638 26.0341 16.578 26.2429 16.4253 26.3968C16.2726 26.5507 16.0654 26.6372 15.8495 26.6372H10.9632C10.7472 26.6372 10.5401 26.5507 10.3874 26.3968C10.2346 26.2429 10.1488 26.0341 10.1488 25.8164C10.1488 25.5987 10.2346 25.3899 10.3874 25.236C10.5401 25.0821 10.7472 24.9956 10.9632 24.9956H15.8495ZM13.4063 2.56006C18.5038 2.56006 22.6359 6.72486 22.6359 11.8626C22.6359 15.4173 20.6575 18.5068 17.7497 20.0724V22.2595C17.7497 22.5498 17.6353 22.8282 17.4316 23.0334C17.228 23.2387 16.9518 23.354 16.6638 23.354H10.1488C9.86085 23.354 9.58467 23.2387 9.38104 23.0334C9.1774 22.8282 9.063 22.5498 9.063 22.2595V20.0729C6.15514 18.5068 4.17676 15.4178 4.17676 11.8626C4.17676 6.72486 8.30889 2.56006 13.4063 2.56006Z" fill="url(#paint0_linear_403_6744)"/>
</g>
<g filter="url(#filter1_b_403_6744)">
<path d="M19.9683 25.7434C20.1937 25.7434 20.4098 25.8328 20.5692 25.9919C20.7285 26.1509 20.8181 26.3667 20.8181 26.5916C20.8181 26.8166 20.7285 27.0323 20.5692 27.1914C20.4098 27.3504 20.1937 27.4398 19.9683 27.4398H14.8696C14.6442 27.4398 14.4281 27.3504 14.2687 27.1914C14.1093 27.0323 14.0198 26.8166 14.0198 26.5916C14.0198 26.3667 14.1093 26.1509 14.2687 25.9919C14.4281 25.8328 14.6442 25.7434 14.8696 25.7434H19.9683ZM17.4189 2.56006C22.738 2.56006 27.0498 6.86368 27.0498 12.1727C27.0498 15.8458 24.9854 19.0384 21.9511 20.6561V22.9162C21.9511 23.2161 21.8317 23.5038 21.6193 23.7159C21.4068 23.9279 21.1186 24.0471 20.8181 24.0471H14.0198C13.7193 24.0471 13.4311 23.9279 13.2186 23.7159C13.0061 23.5038 12.8868 23.2161 12.8868 22.9162V20.6567C9.85249 19.0383 7.78809 15.8464 7.78809 12.1727C7.78809 6.86368 12.0999 2.56006 17.4189 2.56006Z" fill="#3EA0FE" fill-opacity="0.35"/>
<path d="M20.7109 25.8498C20.5139 25.6532 20.2468 25.5428 19.9683 25.5428H14.8696C14.5911 25.5428 14.324 25.6532 14.127 25.8498C13.9299 26.0465 13.8192 26.3133 13.8192 26.5916C13.8192 26.8699 13.9299 27.1367 14.127 27.3334C14.324 27.53 14.5911 27.6404 14.8696 27.6404H19.9683C20.2468 27.6404 20.5139 27.53 20.7109 27.3334C20.908 27.1367 21.0187 26.8699 21.0187 26.5916C21.0187 26.3133 20.908 26.0465 20.7109 25.8498ZM27.2504 12.1727C27.2504 6.75251 22.8485 2.35942 17.4189 2.35942C11.9894 2.35942 7.58744 6.75251 7.58744 12.1727C7.58744 15.8805 9.64732 19.1071 12.6861 20.7762V22.9162C12.6861 23.2695 12.8267 23.6082 13.0769 23.8579C13.327 24.1075 13.6662 24.2477 14.0198 24.2477H20.8181C21.1717 24.2477 21.5109 24.1075 21.761 23.8579C22.0112 23.6082 22.1518 23.2695 22.1518 22.9162V20.7757C25.1906 19.1071 27.2504 15.8799 27.2504 12.1727Z" stroke="url(#paint1_linear_403_6744)" stroke-width="0.401286" stroke-linecap="round" stroke-linejoin="round"/>
</g>
<g filter="url(#filter2_bd_403_6744)">
<path d="M16.5591 4.56641C16.7872 4.56641 17.006 4.66173 17.1673 4.83142C17.3286 5.0011 17.4193 5.23125 17.4193 5.47122C17.4193 5.71119 17.3286 5.94133 17.1673 6.11101C17.006 6.2807 16.7872 6.37603 16.5591 6.37603C13.8518 6.37603 11.5574 8.37264 11.0975 11.0605C11.0537 11.2933 10.9247 11.4986 10.7384 11.6323C10.552 11.766 10.3232 11.8173 10.1012 11.7752C9.87919 11.7331 9.68179 11.601 9.55152 11.4073C9.42125 11.2136 9.36852 10.9738 9.40469 10.7396C10.0126 7.18674 13.0232 4.56641 16.5591 4.56641Z" fill="url(#paint2_linear_403_6744)"/>
<path d="M16.5591 4.60653C16.7759 4.60653 16.9843 4.69712 17.1382 4.85907C17.2923 5.02109 17.3791 5.24125 17.3791 5.47122C17.3791 5.70118 17.2923 5.92134 17.1382 6.08337C16.9843 6.24532 16.7759 6.3359 16.5591 6.3359C13.8317 6.3359 11.5212 8.34716 11.058 11.0534C11.016 11.2763 10.8925 11.4723 10.715 11.5997C10.5374 11.7271 10.3197 11.7758 10.1087 11.7358C9.89758 11.6958 9.70933 11.57 9.58482 11.3849C9.46033 11.1998 9.40974 10.9704 9.4443 10.7461C10.0491 7.21175 13.0437 4.60653 16.5591 4.60653Z" stroke="url(#paint3_linear_403_6744)" stroke-opacity="0.5" stroke-width="0.0802572"/>
</g>
<defs>
<filter id="filter0_di_403_6744" x="3.86426" y="2.24756" width="19.084" height="25.0146" filterUnits="userSpaceOnUse" color-interpolation-filters="sRGB">
<feFlood flood-opacity="0" result="BackgroundImageFix"/>
<feColorMatrix in="SourceAlpha" type="matrix" values="0 0 0 0 0 0 0 0 0 0 0 0 0 0 0 0 0 0 127 0" result="hardAlpha"/>
<feOffset dy="0.3125"/>
<feGaussianBlur stdDeviation="0.15625"/>
<feComposite in2="hardAlpha" operator="out"/>
<feColorMatrix type="matrix" values="0 0 0 0 0 0 0 0 0 0 0 0 0 0 0 0 0 0 0.25 0"/>
<feBlend mode="normal" in2="BackgroundImageFix" result="effect1_dropShadow_403_6744"/>
<feBlend mode="normal" in="SourceGraphic" in2="effect1_dropShadow_403_6744" result="shape"/>
<feColorMatrix in="SourceAlpha" type="matrix" values="0 0 0 0 0 0 0 0 0 0 0 0 0 0 0 0 0 0 127 0" result="hardAlpha"/>
<feOffset dx="-0.46875" dy="-1.25"/>
<feGaussianBlur stdDeviation="0.15625"/>
<feComposite in2="hardAlpha" operator="arithmetic" k2="-1" k3="1"/>
<feColorMatrix type="matrix" values="0 0 0 0 0.804167 0 0 0 0 0.94125 0 0 0 0 1 0 0 0 0.6 0"/>
<feBlend mode="normal" in2="shape" result="effect2_innerShadow_403_6744"/>
</filter>
<filter id="filter1_b_403_6744" x="-2.24414" y="-7.47217" width="39.3262" height="44.9438" filterUnits="userSpaceOnUse" color-interpolation-filters="sRGB">
<feFlood flood-opacity="0" result="BackgroundImageFix"/>
<feGaussianBlur in="BackgroundImageFix" stdDeviation="4.81543"/>
<feComposite in2="SourceAlpha" operator="in" result="effect1_backgroundBlur_403_6744"/>
<feBlend mode="normal" in="SourceGraphic" in2="effect1_backgroundBlur_403_6744" result="shape"/>
</filter>
<filter id="filter2_bd_403_6744" x="3.37427" y="-1.45288" width="20.8665" height="20.0643" filterUnits="userSpaceOnUse" color-interpolation-filters="sRGB">
<feFlood flood-opacity="0" result="BackgroundImageFix"/>
<feGaussianBlur in="BackgroundImageFix" stdDeviation="3.00964"/>
<feComposite in2="SourceAlpha" operator="in" result="effect1_backgroundBlur_403_6744"/>
<feColorMatrix in="SourceAlpha" type="matrix" values="0 0 0 0 0 0 0 0 0 0 0 0 0 0 0 0 0 0 127 0" result="hardAlpha"/>
<feOffset dx="2.00643" dy="2.00643"/>
<feGaussianBlur stdDeviation="2.40771"/>
<feColorMatrix type="matrix" values="0 0 0 0 0.15375 0 0 0 0 0.522433 0 0 0 0 0.9 0 0 0 0.28 0"/>
<feBlend mode="normal" in2="effect1_backgroundBlur_403_6744" result="effect2_dropShadow_403_6744"/>
<feBlend mode="normal" in="SourceGraphic" in2="effect2_dropShadow_403_6744" result="shape"/>
</filter>
<linearGradient id="paint0_linear_403_6744" x1="13.4063" y1="4.99837" x2="4.68456" y2="19.8701" gradientUnits="userSpaceOnUse">
<stop stop-color="#46C8FF"/>
<stop offset="1" stop-color="#0A98FF"/>
</linearGradient>
<linearGradient id="paint1_linear_403_6744" x1="10.8542" y1="5.45858" x2="30.9654" y2="20.6572" gradientUnits="userSpaceOnUse">
<stop stop-color="white" stop-opacity="0.25"/>
<stop offset="1" stop-color="white" stop-opacity="0"/>
</linearGradient>
<linearGradient id="paint2_linear_403_6744" x1="16.8503" y1="5.87076" x2="7.91259" y2="6.19455" gradientUnits="userSpaceOnUse">
<stop stop-color="white"/>
<stop offset="1" stop-color="white" stop-opacity="0.2"/>
</linearGradient>
<linearGradient id="paint3_linear_403_6744" x1="10.2581" y1="6.98942" x2="17.073" y2="7.03122" gradientUnits="userSpaceOnUse">
<stop stop-color="white"/>
<stop offset="1" stop-color="white" stop-opacity="0"/>
</linearGradient>
</defs>
</svg>
