<svg width="31" height="30" viewBox="0 0 31 30" fill="none" xmlns="http://www.w3.org/2000/svg">
<path d="M15.6557 3.32671L7.75379 5.44402C4.88757 6.21202 3.66844 8.33743 4.43896 11.2131L7.04866 20.9526C7.83182 23.8754 9.94022 25.0687 12.8064 24.3007L20.7084 22.1834C23.6208 21.4031 24.8029 19.328 24.0197 16.4052L21.41 6.6657C20.6395 3.79005 18.5681 2.54633 15.6557 3.32671Z" fill="url(#paint0_linear_403_6774)" fill-opacity="0.9"/>
<g filter="url(#filter0_f_403_6774)">
<rect x="10.248" y="20.9033" width="12.6058" height="10.6747" rx="3.43691" transform="rotate(-105 10.248 20.9033)" fill="#8237FF" fill-opacity="0.5"/>
</g>
<g filter="url(#filter1_b_403_6774)">
<path d="M23.0866 8.3667H14.906C11.9386 8.3667 10.2109 10.1042 10.2109 13.0812V23.1643C10.2109 26.1902 11.9386 27.8886 14.906 27.8886H23.0866C26.1018 27.8886 27.7807 26.1902 27.7807 23.1643V13.0812C27.7807 10.1042 26.1018 8.3667 23.0866 8.3667Z" fill="#E290FF" fill-opacity="0.35"/>
<path d="M23.0866 8.24395H14.906C13.3984 8.24395 12.1901 8.68576 11.3587 9.52096C10.5274 10.3561 10.0882 11.5691 10.0882 13.0812V23.1643C10.0882 24.7003 10.5271 25.9162 11.3589 26.748C12.1907 27.5797 13.3992 28.0114 14.906 28.0114H23.0866C24.6169 28.0114 25.8256 27.58 26.6515 26.7476C27.4772 25.9154 27.9034 24.6994 27.9034 23.1643V13.0812C27.9034 11.5701 27.477 10.3568 26.6517 9.5213C25.8261 8.68552 24.6176 8.24395 23.0866 8.24395Z" stroke="url(#paint1_linear_403_6774)" stroke-width="0.245494" stroke-linecap="round" stroke-linejoin="round"/>
</g>
<g filter="url(#filter2_bd_403_6774)">
<mask id="path-5-inside-1_403_6774" fill="white">
<path fill-rule="evenodd" clip-rule="evenodd" d="M15.1684 12.9058V12.9155C14.7477 12.9155 14.4071 13.2572 14.4071 13.6769C14.4071 14.0966 14.7477 14.4382 15.1684 14.4382H18.086C18.5067 14.4382 18.8483 14.0966 18.8483 13.6661C18.8483 13.2474 18.5067 12.9058 18.086 12.9058H15.1684ZM22.821 18.8504H15.1684C14.7477 18.8504 14.4071 18.5088 14.4071 18.0891C14.4071 17.6693 14.7477 17.3267 15.1684 17.3267H22.821C23.2408 17.3267 23.5824 17.6693 23.5824 18.0891C23.5824 18.5088 23.2408 18.8504 22.821 18.8504ZM22.8211 23.3113H15.1685C14.8757 23.3504 14.5926 23.204 14.4365 22.9599C14.2803 22.7061 14.2803 22.384 14.4365 22.14C14.5926 21.8862 14.8757 21.7496 15.1685 21.7789H22.8211C23.2106 21.8179 23.5044 22.1498 23.5044 22.55C23.5044 22.9394 23.2106 23.2723 22.8211 23.3113Z"/>
</mask>
<path fill-rule="evenodd" clip-rule="evenodd" d="M15.1684 12.9058V12.9155C14.7477 12.9155 14.4071 13.2572 14.4071 13.6769C14.4071 14.0966 14.7477 14.4382 15.1684 14.4382H18.086C18.5067 14.4382 18.8483 14.0966 18.8483 13.6661C18.8483 13.2474 18.5067 12.9058 18.086 12.9058H15.1684ZM22.821 18.8504H15.1684C14.7477 18.8504 14.4071 18.5088 14.4071 18.0891C14.4071 17.6693 14.7477 17.3267 15.1684 17.3267H22.821C23.2408 17.3267 23.5824 17.6693 23.5824 18.0891C23.5824 18.5088 23.2408 18.8504 22.821 18.8504ZM22.8211 23.3113H15.1685C14.8757 23.3504 14.5926 23.204 14.4365 22.9599C14.2803 22.7061 14.2803 22.384 14.4365 22.14C14.5926 21.8862 14.8757 21.7496 15.1685 21.7789H22.8211C23.2106 21.8179 23.5044 22.1498 23.5044 22.55C23.5044 22.9394 23.2106 23.2723 22.8211 23.3113Z" fill="url(#paint2_linear_403_6774)"/>
<path d="M15.1684 12.9155V13.0137H15.2666V12.9155H15.1684ZM15.1684 12.9058V12.8076H15.0702V12.9058H15.1684ZM15.1685 23.3113V23.2123L15.1556 23.214L15.1685 23.3113ZM22.8211 23.3113V23.41L22.8309 23.409L22.8211 23.3113ZM14.4365 22.9599L14.3528 23.0114L14.3538 23.0129L14.4365 22.9599ZM14.4365 22.14L14.5192 22.1929L14.5201 22.1915L14.4365 22.14ZM15.1685 21.7789L15.1587 21.877H15.1685V21.7789ZM22.8211 21.7789L22.831 21.6807H22.8211V21.7789ZM15.2666 12.9155V12.9058H15.0702V12.9155H15.2666ZM14.5053 13.6769C14.5053 13.3113 14.8021 13.0137 15.1684 13.0137V12.8173C14.6934 12.8173 14.3089 13.203 14.3089 13.6769H14.5053ZM15.1684 14.34C14.8021 14.34 14.5053 14.0424 14.5053 13.6769H14.3089C14.3089 14.1507 14.6934 14.5364 15.1684 14.5364V14.34ZM18.086 14.34H15.1684V14.5364H18.086V14.34ZM18.7501 13.6661C18.7501 14.0432 18.4516 14.34 18.086 14.34V14.5364C18.5617 14.5364 18.9465 14.15 18.9465 13.6661H18.7501ZM18.086 13.004C18.4526 13.004 18.7501 13.3018 18.7501 13.6661H18.9465C18.9465 13.193 18.5608 12.8076 18.086 12.8076V13.004ZM15.1684 13.004H18.086V12.8076H15.1684V13.004ZM15.1684 18.9486H22.821V18.7522H15.1684V18.9486ZM14.3089 18.0891C14.3089 18.5629 14.6934 18.9486 15.1684 18.9486V18.7522C14.8021 18.7522 14.5053 18.4546 14.5053 18.0891H14.3089ZM15.1684 17.2285C14.6933 17.2285 14.3089 17.6153 14.3089 18.0891H14.5053C14.5053 17.7233 14.8022 17.4249 15.1684 17.4249V17.2285ZM22.821 17.2285H15.1684V17.4249H22.821V17.2285ZM23.6806 18.0891C23.6806 17.6153 23.2952 17.2285 22.821 17.2285V17.4249C23.1864 17.4249 23.4842 17.7234 23.4842 18.0891H23.6806ZM22.821 18.9486C23.295 18.9486 23.6806 18.563 23.6806 18.0891H23.4842C23.4842 18.4545 23.1865 18.7522 22.821 18.7522V18.9486ZM15.1685 23.4095H22.8211V23.2131H15.1685V23.4095ZM14.3538 23.0129C14.5287 23.2862 14.8476 23.4532 15.1815 23.4087L15.1556 23.214C14.9038 23.2476 14.6566 23.1217 14.5192 22.907L14.3538 23.0129ZM14.3538 22.0871C14.1765 22.364 14.1776 22.7267 14.3528 23.0114L14.5201 22.9085C14.383 22.6856 14.384 22.4041 14.5192 22.1929L14.3538 22.0871ZM15.1783 21.6811C14.8486 21.6482 14.529 21.8022 14.3528 22.0885L14.5201 22.1915C14.6563 21.9702 14.9028 21.851 15.1588 21.8766L15.1783 21.6811ZM22.8211 21.6807H15.1685V21.877H22.8211V21.6807ZM23.6026 22.55C23.6026 22.1012 23.2724 21.7254 22.8309 21.6811L22.8113 21.8766C23.1488 21.9104 23.4062 22.1983 23.4062 22.55H23.6026ZM22.8309 23.409C23.2717 23.3648 23.6026 22.9887 23.6026 22.55H23.4062C23.4062 22.8901 23.1495 23.1797 22.8113 23.2136L22.8309 23.409Z" fill="url(#paint3_linear_403_6774)" mask="url(#path-5-inside-1_403_6774)"/>
</g>
<defs>
<filter id="filter0_f_403_6774" x="1.12851" y="0.107514" width="25.2869" height="26.6526" filterUnits="userSpaceOnUse" color-interpolation-filters="sRGB">
<feFlood flood-opacity="0" result="BackgroundImageFix"/>
<feBlend mode="normal" in="SourceGraphic" in2="BackgroundImageFix" result="shape"/>
<feGaussianBlur stdDeviation="3.31416" result="effect1_foregroundBlur_403_6774"/>
</filter>
<filter id="filter1_b_403_6774" x="4.07397" y="2.22925" width="29.8442" height="31.7969" filterUnits="userSpaceOnUse" color-interpolation-filters="sRGB">
<feFlood flood-opacity="0" result="BackgroundImageFix"/>
<feGaussianBlur in="BackgroundImageFix" stdDeviation="2.94592"/>
<feComposite in2="SourceAlpha" operator="in" result="effect1_backgroundBlur_403_6774"/>
<feBlend mode="normal" in="SourceGraphic" in2="effect1_backgroundBlur_403_6774" result="shape"/>
</filter>
<filter id="filter2_bd_403_6774" x="10.6369" y="9.22336" width="16.6275" height="17.7764" filterUnits="userSpaceOnUse" color-interpolation-filters="sRGB">
<feFlood flood-opacity="0" result="BackgroundImageFix"/>
<feGaussianBlur in="BackgroundImageFix" stdDeviation="1.8412"/>
<feComposite in2="SourceAlpha" operator="in" result="effect1_backgroundBlur_403_6774"/>
<feColorMatrix in="SourceAlpha" type="matrix" values="0 0 0 0 0 0 0 0 0 0 0 0 0 0 0 0 0 0 127 0" result="hardAlpha"/>
<feOffset dx="1.22747" dy="1.22747"/>
<feGaussianBlur stdDeviation="1.22747"/>
<feColorMatrix type="matrix" values="0 0 0 0 0.577356 0 0 0 0 0.359375 0 0 0 0 0.9375 0 0 0 0.5 0"/>
<feBlend mode="normal" in2="effect1_backgroundBlur_403_6774" result="effect2_dropShadow_403_6774"/>
<feBlend mode="normal" in="SourceGraphic" in2="effect2_dropShadow_403_6774" result="shape"/>
</filter>
<linearGradient id="paint0_linear_403_6774" x1="29.1381" y1="25.8254" x2="12.4473" y2="30.3311" gradientUnits="userSpaceOnUse">
<stop stop-color="#D354FF" stop-opacity="0.9"/>
<stop offset="1" stop-color="#6D48FF" stop-opacity="0.7"/>
</linearGradient>
<linearGradient id="paint1_linear_403_6774" x1="13.0078" y1="10.641" x2="25.672" y2="24.7575" gradientUnits="userSpaceOnUse">
<stop stop-color="white" stop-opacity="0.25"/>
<stop offset="1" stop-color="white" stop-opacity="0"/>
</linearGradient>
<linearGradient id="paint2_linear_403_6774" x1="22.9256" y1="14.7859" x2="12.6052" y2="15.0853" gradientUnits="userSpaceOnUse">
<stop stop-color="white"/>
<stop offset="1" stop-color="white" stop-opacity="0.2"/>
</linearGradient>
<linearGradient id="paint3_linear_403_6774" x1="15.7939" y1="14.1188" x2="22.5562" y2="21.57" gradientUnits="userSpaceOnUse">
<stop stop-color="white" stop-opacity="0.25"/>
<stop offset="1" stop-color="white" stop-opacity="0"/>
</linearGradient>
</defs>
</svg>
