<svg width="10" height="12" viewBox="0 0 10 12" fill="none" xmlns="http://www.w3.org/2000/svg">
<path d="M8.04225 2.562C7.06075 3.09975 6.066 3.279 5.176 3.279C3.4555 3.279 2.12725 2.60925 2.04425 2.5665C1.86 2.4715 1.78775 2.24525 1.88275 2.06125C1.978 1.87725 2.20375 1.805 2.3875 1.89975C2.415 1.91375 5.1585 3.2865 7.682 1.90425C7.863 1.80525 8.0915 1.871 8.191 2.053C8.2905 2.2345 8.224 2.4625 8.04225 2.562ZM6.71675 8.088C6.92375 8.088 7.09175 8.25575 7.09175 8.463C7.09175 8.67 6.92375 8.838 6.71675 8.838H6.37875C5.84593 8.838 5.414 9.26993 5.414 9.80275C5.414 10.0098 5.246 10.1777 5.039 10.1777C4.832 10.1777 4.664 10.0098 4.664 9.80275C4.664 9.26993 4.23207 8.838 3.69925 8.838H3.361C3.154 8.838 2.986 8.67 2.986 8.463C2.986 8.25575 3.154 8.088 3.361 8.088H4.348C4.52252 8.088 4.664 7.94652 4.664 7.772C4.664 7.59748 4.52252 7.456 4.348 7.456H3.361C3.154 7.456 2.986 7.288 2.986 7.081C2.986 6.874 3.154 6.706 3.361 6.706C3.77942 6.706 4.02918 6.23988 3.79743 5.8915L3.3045 5.1505C3.18975 4.97775 3.2365 4.745 3.409 4.63025C3.5815 4.51575 3.81425 4.56275 3.929 4.73475C4.44689 5.51343 5.59077 5.51338 6.10875 4.73475C6.22375 4.5625 6.4565 4.516 6.62875 4.63025C6.801 4.745 6.848 4.97775 6.73325 5.1505L6.26247 5.8582C6.02125 6.22082 6.28122 6.706 6.71675 6.706C6.92375 6.706 7.09175 6.874 7.09175 7.081C7.09175 7.288 6.92375 7.456 6.71675 7.456H5.73C5.55548 7.456 5.414 7.59748 5.414 7.772C5.414 7.94652 5.55548 8.088 5.73 8.088H6.71675ZM7.61375 0H2.38625C1.0705 0 0 1.0705 0 2.38625V9.61375C0 10.9295 1.0705 12 2.38625 12H7.61375C8.9295 12 10 10.9295 10 9.61375V2.38625C10 1.0705 8.9295 0 7.61375 0Z" fill="url(#paint0_linear_417_3663)"/>
<defs>
<linearGradient id="paint0_linear_417_3663" x1="9.98182" y1="6" x2="2.34545" y2="6" gradientUnits="userSpaceOnUse">
<stop stop-color="#FF3867"/>
<stop offset="1" stop-color="#FF4470"/>
</linearGradient>
</defs>
</svg>
