<svg width="17" height="18" viewBox="0 0 17 18" fill="none" xmlns="http://www.w3.org/2000/svg">
<path fill-rule="evenodd" clip-rule="evenodd" d="M4.07716 1.7998C4.02741 1.94055 4.00034 2.09201 4.00034 2.24979C4.00034 2.99538 4.60476 3.59979 5.35034 3.59979H11.6503C12.3959 3.59979 13.0003 2.99538 13.0003 2.24979C13.0003 2.09201 12.9733 1.94055 12.9235 1.7998H13.9004C15.3916 1.7998 16.6004 3.00864 16.6004 4.4998V15.2998C16.6004 16.791 15.3916 17.9998 13.9004 17.9998H3.10039C1.60922 17.9998 0.400391 16.791 0.400391 15.2998V4.4998C0.400391 3.00863 1.60922 1.7998 3.10039 1.7998H4.07716ZM12.2194 7.40271C12.6044 7.71712 12.6616 8.28409 12.3472 8.66907L8.67218 13.1691C8.51604 13.3603 8.28824 13.4789 8.04208 13.4973C7.79593 13.5157 7.55303 13.4321 7.37025 13.2662L4.74525 10.8839C4.37718 10.5498 4.3496 9.98066 4.68365 9.61259C5.01769 9.24452 5.58687 9.21694 5.95495 9.55099L7.87779 11.2961L10.953 7.53051C11.2674 7.14553 11.8344 7.08831 12.2194 7.40271Z" fill="url(#paint0_linear_1170_5588)"/>
<rect x="4.90039" width="7.2" height="2.7" rx="1.35" fill="url(#paint1_linear_1170_5588)"/>
<defs>
<linearGradient id="paint0_linear_1170_5588" x1="8.50039" y1="1.7998" x2="8.50039" y2="17.9998" gradientUnits="userSpaceOnUse">
<stop stop-color="#FFE7BA"/>
<stop offset="1" stop-color="#FFC296"/>
</linearGradient>
<linearGradient id="paint1_linear_1170_5588" x1="8.50039" y1="0" x2="8.50039" y2="2.7" gradientUnits="userSpaceOnUse">
<stop stop-color="#FFE7BA"/>
<stop offset="1" stop-color="#FFC296"/>
</linearGradient>
</defs>
</svg>
