<svg width="36" height="34" viewBox="0 0 36 34" fill="none" xmlns="http://www.w3.org/2000/svg">
<g filter="url(#filter0_di_403_6754)">
<path d="M19.4362 17.976C19.3006 18.2555 19.3113 18.5844 19.4641 18.8551L21.635 22.5749C21.8187 22.8903 21.8008 23.2837 21.5894 23.5817C21.3863 23.8849 21.0269 24.0435 20.666 23.9916L16.4 23.4286C16.2512 23.4076 16.0998 23.4224 15.9567 23.47C15.8107 23.5232 15.6588 23.578 15.5541 23.6928C15.5511 23.696 15.5482 23.6992 15.5454 23.7025L12.6447 26.8878C12.4999 27.0414 12.3107 27.1461 12.1025 27.1863C11.5903 27.2702 11.1042 26.9303 11.0072 26.4201L10.2762 22.1756C10.218 21.8676 10.014 21.6073 9.72919 21.4773L5.77415 19.7098C5.4433 19.5618 5.22852 19.2367 5.2231 18.8746C5.21473 18.5146 5.40628 18.1798 5.72136 18.0054L9.53112 15.9557C9.82555 15.8126 10.0264 15.5286 10.0637 15.2032L10.5116 10.9232C10.5242 10.827 10.5513 10.7327 10.5939 10.6457L10.5987 10.638C10.6302 10.5878 10.6554 10.5335 10.686 10.4828C10.7169 10.4316 10.761 10.3904 10.8067 10.3518L10.8144 10.3453C10.8916 10.2747 10.9819 10.22 11.0802 10.1842L11.2721 10.1143C11.5879 10.0349 11.9222 10.1194 12.1613 10.3403L15.2759 13.3035C15.5019 13.5209 15.8205 13.6129 16.1273 13.5515L20.3624 12.6689C20.7201 12.5936 21.0897 12.7248 21.3202 13.0075C21.5445 13.2934 21.5829 13.6829 21.4188 14.0076L19.4362 17.976Z" fill="url(#paint0_linear_403_6754)"/>
</g>
<g opacity="0.5" filter="url(#filter1_f_403_6754)">
<path d="M15.7062 15.8232C13.8539 15.8232 12.3506 17.3269 12.3506 19.1788C12.3506 21.0314 13.8539 22.5344 15.7062 22.5344C17.5618 22.5344 19.0617 21.0314 19.0617 19.1788C19.0617 17.3269 17.5618 15.8232 15.7062 15.8232Z" fill="#FF3D22"/>
</g>
<g filter="url(#filter2_b_403_6754)">
<path d="M29.3137 17.3505C28.9719 17.5478 28.7489 17.9012 28.7166 18.2947L28.3481 23.7522C28.3165 24.2146 28.0172 24.6155 27.5827 24.7781C27.1531 24.9522 26.6623 24.8627 26.3199 24.5511L22.2363 20.9191C22.0948 20.7911 21.9251 20.6988 21.7407 20.6468L21.4532 20.5746C21.3497 20.5644 21.2441 20.5717 21.1427 20.5981L15.8234 21.8797C15.5617 21.938 15.2881 21.9133 15.0407 21.8071C14.4424 21.5304 14.1736 20.8267 14.4352 20.2212L16.6913 15.2381C16.8497 14.8729 16.8207 14.4539 16.6139 14.1142L13.7156 9.43774C13.4732 9.04633 13.4791 8.55147 13.7314 8.16702C13.9792 7.78256 14.4191 7.5671 14.8747 7.60825L20.3404 8.16833C20.7519 8.22773 21.1655 8.0722 21.4365 7.75677L24.9573 3.5765C25.0392 3.48425 25.1348 3.4045 25.2415 3.34333L25.3557 3.29305C25.4194 3.25041 25.4882 3.21918 25.5612 3.19804L25.6875 3.18466L25.8866 3.15571L26.3333 3.26796C26.7218 3.40959 27.013 3.73658 27.107 4.13922L28.2697 9.47381C28.3523 9.86344 28.6218 10.1872 28.988 10.3413L34.0693 12.4314C34.4989 12.6071 34.7941 13.0084 34.8349 13.4698C34.867 13.9303 34.6298 14.367 34.2259 14.5915L29.3137 17.3505Z" fill="#FFD595" fill-opacity="0.58"/>
<path d="M28.4818 23.7612L28.4817 23.7613C28.4466 24.2757 28.1141 24.7215 27.6313 24.903C27.1543 25.0956 26.61 24.9959 26.2302 24.6506C26.2301 24.6505 26.2299 24.6503 26.2297 24.6501L22.1473 21.0193L22.1464 21.0185C22.0212 20.9052 21.8706 20.8229 21.7061 20.7763L21.4305 20.707C21.3451 20.6996 21.2588 20.7063 21.1765 20.7277L21.1741 20.7284L21.1741 20.7283L15.8547 22.0099L15.8525 22.0105L15.8525 22.0104C15.5636 22.0748 15.2613 22.0476 14.9879 21.9302L14.9844 21.9287L14.9844 21.9287C14.3202 21.6215 14.0219 20.8402 14.3122 20.1681L14.3132 20.1659L14.3132 20.1659L16.5684 15.1848C16.5686 15.1845 16.5687 15.1841 16.5688 15.1838C16.7093 14.8589 16.6835 14.4864 16.4997 14.1843C16.4996 14.1842 16.4995 14.184 16.4995 14.1839L13.6017 9.50831L13.6016 9.50826C13.3321 9.07287 13.3384 8.52207 13.6191 8.09398C13.8938 7.66805 14.3816 7.4292 14.8867 7.47482L14.8883 7.47497L14.8883 7.47498L20.354 8.03506L20.3595 8.03562L20.3595 8.03574C20.7253 8.08855 21.0932 7.95039 21.3345 7.66996C21.3346 7.66979 21.3347 7.66963 21.3349 7.66946L24.8549 3.4902L24.8571 3.48756L24.8571 3.48759C24.9478 3.38536 25.0546 3.29606 25.1749 3.2271L25.1872 3.22005L25.1875 3.22073L25.2914 3.17498C25.3643 3.1277 25.4423 3.093 25.5239 3.06936C25.5315 3.06717 25.5392 3.06565 25.5471 3.06482L25.6708 3.05172L25.8673 3.02314C25.8846 3.02062 25.9022 3.02152 25.9192 3.02579L26.3659 3.13803L26.3794 3.14142L26.3791 3.1421C26.8099 3.29912 27.1332 3.66183 27.2375 4.10878L27.2379 4.11069L27.2379 4.1107L28.4006 9.44528L28.4008 9.44603C28.4742 9.79225 28.7137 10.0803 29.0395 10.2176C29.0397 10.2177 29.0398 10.2177 29.04 10.2178L34.12 12.3074L28.4818 23.7612ZM28.4818 23.7612L28.8501 18.3057C28.8501 18.3054 28.8501 18.305 28.8502 18.3047C28.8792 17.9555 29.0772 17.642 29.3801 17.4669C29.3803 17.4668 29.3805 17.4667 29.3807 17.4666L34.291 14.7086C34.7402 14.4589 35.0042 13.9729 34.9685 13.4605L34.9686 13.4605M28.4818 23.7612L34.9686 13.4605M34.9686 13.4605L34.9683 13.458M34.9686 13.4605L34.9683 13.458M34.9683 13.458C34.9231 12.9468 34.5963 12.5022 34.1203 12.3075L34.9683 13.458Z" stroke="url(#paint1_linear_403_6754)" stroke-width="0.26793" stroke-linecap="round" stroke-linejoin="round"/>
</g>
<defs>
<filter id="filter0_di_403_6754" x="0.554894" y="7.2843" width="25.8746" height="26.4498" filterUnits="userSpaceOnUse" color-interpolation-filters="sRGB">
<feFlood flood-opacity="0" result="BackgroundImageFix"/>
<feColorMatrix in="SourceAlpha" type="matrix" values="0 0 0 0 0 0 0 0 0 0 0 0 0 0 0 0 0 0 127 0" result="hardAlpha"/>
<feOffset dy="1.86711"/>
<feGaussianBlur stdDeviation="2.33388"/>
<feComposite in2="hardAlpha" operator="out"/>
<feColorMatrix type="matrix" values="0 0 0 0 1 0 0 0 0 0.72 0 0 0 0 0 0 0 0 0.15 0"/>
<feBlend mode="normal" in2="BackgroundImageFix" result="effect1_dropShadow_403_6754"/>
<feBlend mode="normal" in="SourceGraphic" in2="effect1_dropShadow_403_6754" result="shape"/>
<feColorMatrix in="SourceAlpha" type="matrix" values="0 0 0 0 0 0 0 0 0 0 0 0 0 0 0 0 0 0 127 0" result="hardAlpha"/>
<feOffset dx="-0.539851" dy="-1.02829"/>
<feGaussianBlur stdDeviation="0.115682"/>
<feComposite in2="hardAlpha" operator="arithmetic" k2="-1" k3="1"/>
<feColorMatrix type="matrix" values="0 0 0 0 1 0 0 0 0 0.970667 0 0 0 0 0.816667 0 0 0 0.6 0"/>
<feBlend mode="normal" in2="shape" result="effect2_innerShadow_403_6754"/>
</filter>
<filter id="filter1_f_403_6754" x="6.99198" y="10.4646" width="17.4281" height="17.4281" filterUnits="userSpaceOnUse" color-interpolation-filters="sRGB">
<feFlood flood-opacity="0" result="BackgroundImageFix"/>
<feBlend mode="normal" in="SourceGraphic" in2="BackgroundImageFix" result="shape"/>
<feGaussianBlur stdDeviation="2.6793" result="effect1_foregroundBlur_403_6754"/>
</filter>
<filter id="filter2_b_403_6754" x="6.83921" y="-3.54263" width="34.6966" height="35.1067" filterUnits="userSpaceOnUse" color-interpolation-filters="sRGB">
<feFlood flood-opacity="0" result="BackgroundImageFix"/>
<feGaussianBlur in="BackgroundImageFix" stdDeviation="3.21516"/>
<feComposite in2="SourceAlpha" operator="in" result="effect1_backgroundBlur_403_6754"/>
<feBlend mode="normal" in="SourceGraphic" in2="effect1_backgroundBlur_403_6754" result="shape"/>
</filter>
<linearGradient id="paint0_linear_403_6754" x1="8.69252" y1="12.8466" x2="24.4183" y2="17.4741" gradientUnits="userSpaceOnUse">
<stop stop-color="#FFBD12"/>
<stop offset="1" stop-color="#FFCD1A"/>
</linearGradient>
<linearGradient id="paint1_linear_403_6754" x1="18.3625" y1="3.76225" x2="26.9063" y2="23.5219" gradientUnits="userSpaceOnUse">
<stop stop-color="white" stop-opacity="0.25"/>
<stop offset="1" stop-color="white" stop-opacity="0"/>
</linearGradient>
</defs>
</svg>
