<svg width="16" height="16" viewBox="0 0 16 16" fill="none" xmlns="http://www.w3.org/2000/svg">
<mask id="mask0_1183_3601" style="mask-type:alpha" maskUnits="userSpaceOnUse" x="0" y="0" width="16" height="16">
<rect width="16" height="16" fill="#D9D9D9"/>
</mask>
<g mask="url(#mask0_1183_3601)">
<path fill-rule="evenodd" clip-rule="evenodd" d="M13.321 3.55789C13.5651 3.31381 13.5651 2.91808 13.321 2.67401C13.0769 2.42993 12.6812 2.42993 12.4371 2.67401L8 7.1111L3.5629 2.67401C3.31883 2.42993 2.9231 2.42993 2.67902 2.67401C2.43494 2.91808 2.43494 3.31381 2.67902 3.55789L7.11612 7.99498L2.67902 12.4321C2.43494 12.6762 2.43494 13.0719 2.67902 13.316C2.9231 13.56 3.31883 13.56 3.5629 13.316L8 8.87887L12.4371 13.316C12.6812 13.56 13.0769 13.56 13.321 13.316C13.5651 13.0719 13.5651 12.6762 13.321 12.4321L8.88388 7.99498L13.321 3.55789Z" fill="white"/>
</g>
</svg>
