<svg width="20" height="23" viewBox="0 0 20 23" fill="none" xmlns="http://www.w3.org/2000/svg">
<path d="M9.51667 0.0716195C9.79176 -0.0117393 10.0837 -0.0225313 10.3642 0.0402914L10.4833 0.0716457L18.8167 2.59691C19.4859 2.79969 19.9537 3.39691 19.9968 4.08766L20 4.19193V13.2959C20 17.3997 16.7447 20.3182 10.4892 22.0806L10 22.2153L9.78073 22.1554C3.4395 20.426 0.0949478 17.541 0.0020051 13.4711L0 13.2959V4.19193C0 3.49261 0.435885 2.87172 1.08448 2.63021L1.18333 2.59688L9.51667 0.0716195ZM10 1.66667L1.66667 4.19193V13.2959C1.66667 16.3912 4.17977 18.7425 9.43685 20.3234L9.69336 20.3993L10 20.4865L10.3066 20.3993C15.5647 18.8688 18.1643 16.5925 18.3253 13.5956L18.3314 13.4451L18.3333 13.2959V4.19193L10 1.66667ZM15 7.18482V11.0737L14.1667 11.0733V13.2959C14.1667 13.5808 14.3811 13.8157 14.6574 13.8477L14.7222 13.8515H15.5555V14.9626H14.7222C13.8346 14.9626 13.1091 14.2688 13.0584 13.3938L13.0555 13.2959V11.0733L11.9343 11.0743C11.8821 12.4842 11.6288 13.7677 11.1727 14.9226L11.0662 15.1814L10.0449 14.7438C10.5077 13.6639 10.7676 12.4414 10.8224 11.0737L10 11.0737V7.18482H15ZM9.35312 5.52571L9.53578 6.6217C9.02323 6.70711 8.43773 6.77323 7.77885 6.82019L7.77779 7.74L9.44445 7.74037V8.85149L7.77779 8.85112V14.9626H6.66667V8.85112L5 8.85149V7.74037L6.66667 7.74L6.66776 6.87881C6.24536 6.89415 5.79878 6.90321 5.32792 6.90605L5 6.90704V5.79592C6.71651 5.79592 8.1044 5.7155 9.15924 5.55644L9.3531 5.52571H9.35312ZM6.11109 9.40704C6.11109 10.8833 6.03932 12.3596 5.89581 13.8358L5.82992 14.4684L4.7256 14.3457C4.88565 12.9052 4.97568 11.4647 4.99568 10.0243L5 9.40704H6.11112H6.11109ZM9.44443 9.40704V14.407H8.33333V9.40704H9.44445H9.44443ZM13.8889 8.29592H11.1111V9.96258H13.8889V8.29592H13.8889ZM11.9444 5.51816V6.62925H10.2778V5.51816H11.9444ZM14.7222 5.51816V6.62925H13.0555V5.51816H14.7222Z" fill="#0A7AFF"/>
</svg>
