<svg width="88" height="88" viewBox="0 0 88 88" fill="none" xmlns="http://www.w3.org/2000/svg">
<mask id="mask0_1183_3087" style="mask-type:alpha" maskUnits="userSpaceOnUse" x="0" y="0" width="88" height="88">
<rect width="88" height="88" fill="#D9D9D9"/>
</mask>
<g mask="url(#mask0_1183_3087)">
<g opacity="0.4">
<path d="M16.4959 37.1774C23.606 25.7097 25.0635 15.3683 18.4365 7.48486C28.7767 11.759 50.9072 21.2606 56.7079 25.0741C63.9588 29.8409 58.4535 42.1942 55.1637 50.6536C52.5319 57.4211 52.8587 61.2167 53.351 62.2685C54.4252 62.4252 59.662 63.3964 72.0153 66.0282C56.9093 75.0247 24.9041 68.725 20.0536 68.1031C6.12371 66.0137 11.0072 46.0299 16.4959 37.1774Z" fill="url(#paint0_linear_1183_3087)"/>
<mask id="mask1_1183_3087" style="mask-type:alpha" maskUnits="userSpaceOnUse" x="11" y="7" width="62" height="64">
<path d="M16.1058 38.0115C27.7711 20.3266 22.3832 10.1545 18.4361 7.48438C28.7763 11.7585 50.9068 21.2601 56.7075 25.0736C63.9584 29.8404 58.4531 42.1938 55.1634 50.6531C52.5315 57.4207 52.8583 61.2162 53.3506 62.268C54.4248 62.4247 59.6616 63.3959 72.015 66.0277C56.9089 75.0242 24.9037 68.7245 20.0532 68.1027C6.12331 66.0132 11.5372 47.7115 16.1058 38.0115Z" fill="url(#paint1_linear_1183_3087)"/>
</mask>
<g mask="url(#mask1_1183_3087)">
<path d="M28.0172 57.5981C29.6003 66.8252 21.1574 68.1085 18.25 67.721C18.25 68.7371 21.3323 73.9378 28.7269 74.2989C55.1594 75.5897 67.844 72.1576 72.5803 66.1355C72.5803 66.1355 34.943 58.3785 28.0172 57.5981Z" fill="url(#paint2_linear_1183_3087)"/>
</g>
<rect x="28.6543" y="28.6523" width="24.0575" height="2.61475" rx="1.30738" transform="rotate(15.7425 28.6543 28.6523)" fill="url(#paint3_linear_1183_3087)"/>
<rect x="24.0469" y="37.4478" width="24.0575" height="2.61475" rx="1.30738" transform="rotate(11.6658 24.0469 37.4478)" fill="url(#paint4_linear_1183_3087)"/>
<rect x="23.4805" y="46.9795" width="24.0575" height="2.61475" rx="1.30738" transform="rotate(11.0818 23.4805 46.9795)" fill="url(#paint5_linear_1183_3087)"/>
<path d="M61.3443 19.2051C62.0563 20.8402 63.3611 22.145 64.9962 22.857C63.3611 23.569 62.0563 24.8738 61.3443 26.5089C60.6323 24.8738 59.3275 23.569 57.6924 22.857C59.3275 22.145 60.6323 20.8402 61.3443 19.2051Z" fill="url(#paint6_linear_1183_3087)"/>
<path d="M72.0154 18.7837C72.3714 19.6012 73.0238 20.2537 73.8414 20.6096C73.0238 20.9656 72.3714 21.618 72.0154 22.4356C71.6594 21.618 71.007 20.9656 70.1895 20.6096C71.007 20.2537 71.6594 19.6012 72.0154 18.7837Z" fill="url(#paint7_linear_1183_3087)"/>
</g>
</g>
<defs>
<linearGradient id="paint0_linear_1183_3087" x1="21.1805" y1="27.9849" x2="59.8841" y2="43.3365" gradientUnits="userSpaceOnUse">
<stop stop-color="#DBDCDF"/>
<stop offset="1" stop-color="#F2F2F2"/>
</linearGradient>
<linearGradient id="paint1_linear_1183_3087" x1="21.1805" y1="27.9844" x2="59.884" y2="43.336" gradientUnits="userSpaceOnUse">
<stop stop-color="#DBDCDF"/>
<stop offset="1" stop-color="#F2F2F2"/>
</linearGradient>
<linearGradient id="paint2_linear_1183_3087" x1="18.25" y1="65.9344" x2="72.5803" y2="65.9344" gradientUnits="userSpaceOnUse">
<stop stop-color="#B2B7C2"/>
<stop offset="1" stop-color="#B2B7C2" stop-opacity="0"/>
</linearGradient>
<linearGradient id="paint3_linear_1183_3087" x1="28.6543" y1="29.9597" x2="52.7118" y2="29.9597" gradientUnits="userSpaceOnUse">
<stop stop-color="#B2B7C2"/>
<stop offset="1" stop-color="#7986A8" stop-opacity="0"/>
</linearGradient>
<linearGradient id="paint4_linear_1183_3087" x1="24.0469" y1="38.7551" x2="48.1044" y2="38.7551" gradientUnits="userSpaceOnUse">
<stop stop-color="#B2B7C2"/>
<stop offset="1" stop-color="#7986A8" stop-opacity="0"/>
</linearGradient>
<linearGradient id="paint5_linear_1183_3087" x1="23.4805" y1="48.2869" x2="47.538" y2="48.2869" gradientUnits="userSpaceOnUse">
<stop stop-color="#B2B7C2"/>
<stop offset="1" stop-color="#7986A8" stop-opacity="0"/>
</linearGradient>
<linearGradient id="paint6_linear_1183_3087" x1="58.9248" y1="21.5689" x2="63.502" y2="23.4494" gradientUnits="userSpaceOnUse">
<stop stop-color="#DBDCDF"/>
<stop offset="1" stop-color="#DBDCDF" stop-opacity="0"/>
</linearGradient>
<linearGradient id="paint7_linear_1183_3087" x1="70.8056" y1="19.9656" x2="73.0943" y2="20.9059" gradientUnits="userSpaceOnUse">
<stop stop-color="#DBDCDF"/>
<stop offset="1" stop-color="#DBDCDF" stop-opacity="0"/>
</linearGradient>
</defs>
</svg>
