<svg width="17" height="16" viewBox="0 0 17 16" fill="none" xmlns="http://www.w3.org/2000/svg">
<path d="M3.78783 15.3334H13.2909C14.9938 15.3334 15.8727 14.4545 15.8727 12.7752V3.22498C15.8727 1.54565 14.9938 0.666748 13.2909 0.666748H3.78783C2.0928 0.666748 1.20605 1.5378 1.20605 3.22498V12.7752C1.20605 14.4545 2.0928 15.3334 3.78783 15.3334ZM4.76874 7.99616C4.76874 7.53317 5.09833 7.21142 5.55348 7.21142H7.78997V4.97493C7.78997 4.51979 8.10386 4.19805 8.55901 4.19805C9.01415 4.19805 9.34374 4.51979 9.34374 4.97493V7.21142H11.5802C12.0275 7.21142 12.3571 7.53317 12.3571 7.99616C12.3571 8.44346 12.0275 8.7652 11.5802 8.7652H9.34374V11.0017C9.34374 11.449 9.01415 11.7786 8.55901 11.7786C8.10386 11.7786 7.78997 11.449 7.78997 11.0017V8.7652H5.55348C5.09833 8.7652 4.76874 8.44346 4.76874 7.99616Z" fill="#975DFF"/>
</svg>
