<svg width="17" height="16" viewBox="0 0 17 16" fill="none" xmlns="http://www.w3.org/2000/svg">
<path d="M8.53584 15.3334C12.5552 15.3334 15.8727 12.0159 15.8727 7.99654C15.8727 3.98429 12.5481 0.666748 8.52876 0.666748C4.51651 0.666748 1.20605 3.98429 1.20605 7.99654C1.20605 12.0159 4.5236 15.3334 8.53584 15.3334ZM8.53584 11.1936C5.54438 11.1936 3.46028 8.75504 3.46028 8.00363C3.46028 7.25222 5.5302 4.80659 8.53584 4.80659C11.5486 4.80659 13.6043 7.25222 13.6043 8.00363C13.6043 8.75504 11.5557 11.1936 8.53584 11.1936ZM8.53584 10.0735C9.67714 10.0735 10.6058 9.13074 10.6058 8.00363C10.6058 6.84816 9.67714 5.9337 8.53584 5.9337C7.38037 5.9337 6.45175 6.84816 6.45175 8.00363C6.45175 9.13074 7.38037 10.0735 8.53584 10.0735ZM8.54293 8.91099C8.03963 8.91099 7.62139 8.49275 7.62139 8.00363C7.62139 7.5145 8.03963 7.09626 8.54293 7.09626C9.02497 7.09626 9.44321 7.5145 9.44321 8.00363C9.44321 8.49275 9.02497 8.91099 8.54293 8.91099Z" fill="#6D6AFF"/>
</svg>
