<svg width="30" height="30" viewBox="0 0 30 30" fill="none" xmlns="http://www.w3.org/2000/svg">
<g clip-path="url(#clip0_5002_3423)">
<g clip-path="url(#clip1_5002_3423)">
<g filter="url(#filter0_bdi_5002_3423)">
<path d="M18.7377 14.1726C18.5725 13.915 18.3378 13.6574 18.0334 13.4942C17.79 13.3739 17.6335 13.1764 17.4943 12.9446C17.0509 12.206 17.3117 11.2355 18.0508 10.7976C18.9203 10.308 19.1986 9.21737 18.6943 8.36717L18.1117 7.35379C17.6161 6.50358 16.5292 6.203 15.6684 6.7011C14.9032 7.11332 13.9207 6.83851 13.4772 6.10853C13.3381 5.86807 13.2599 5.61043 13.2773 5.35279C13.3033 5.01786 13.199 4.7001 13.0425 4.44246C12.7208 3.91001 12.1382 3.54932 11.4948 3.54932H10.2688C9.63405 3.56649 9.05148 3.91001 8.72976 4.44246C8.56456 4.7001 8.46891 5.01786 8.4863 5.35279C8.50369 5.61043 8.42544 5.86807 8.28632 6.10853C7.84287 6.83851 6.86033 7.11332 6.10387 6.7011C5.23437 6.203 4.15618 6.50358 3.65187 7.35379L3.06931 8.36717C2.57369 9.21737 2.85193 10.308 3.71274 10.7976C4.45181 11.2355 4.71266 12.206 4.27791 12.9446C4.1301 13.1764 3.97359 13.3739 3.73013 13.4942C3.4345 13.6574 3.17365 13.915 3.03453 14.1726C2.71281 14.7051 2.7302 15.3749 3.05192 15.9332L3.65187 16.9637C3.97359 17.5133 4.57354 17.8569 5.19959 17.8569C5.49522 17.8569 5.84302 17.771 6.12126 17.5992C6.33863 17.4532 6.59948 17.4017 6.88642 17.4017C7.74723 17.4017 8.46891 18.1145 8.4863 18.9647C8.4863 19.9523 9.28624 20.7252 10.2949 20.7252H11.4774C12.4773 20.7252 13.2773 19.9523 13.2773 18.9647C13.3033 18.1145 14.025 17.4017 14.8858 17.4017C15.1641 17.4017 15.4249 17.4532 15.651 17.5992C15.9292 17.771 16.2683 17.8569 16.5727 17.8569C17.19 17.8569 17.79 17.5133 18.1117 16.9637L18.7203 15.9332C19.0334 15.3578 19.0594 14.7051 18.7377 14.1726" fill="url(#paint0_linear_5002_3423)" fill-opacity="0.95" shape-rendering="crispEdges"/>
</g>
<g opacity="0.5" filter="url(#filter1_f_5002_3423)">
<path d="M14.9885 13.2333C14.9033 13.1007 14.7822 12.968 14.6253 12.8841C14.4998 12.8222 14.4191 12.7205 14.3473 12.6012C14.1187 12.221 14.2532 11.7215 14.6343 11.4961C15.0826 11.2441 15.2261 10.6828 14.9661 10.2452L14.6657 9.72356C14.4101 9.28596 13.8497 9.13125 13.4058 9.38762C13.0113 9.5998 12.5047 9.45835 12.276 9.08262C12.2043 8.95886 12.1639 8.82625 12.1729 8.69364C12.1864 8.52125 12.1326 8.3577 12.0519 8.22509C11.886 7.95103 11.5856 7.76538 11.2538 7.76538H10.6217C10.2944 7.77422 9.994 7.95103 9.82811 8.22509C9.74293 8.3577 9.69361 8.52125 9.70258 8.69364C9.71154 8.82625 9.67119 8.95886 9.59946 9.08262C9.37081 9.45835 8.86419 9.5998 8.47413 9.38762C8.0258 9.13125 7.46986 9.28596 7.20982 9.72356L6.90944 10.2452C6.65389 10.6828 6.79735 11.2441 7.24121 11.4961C7.62229 11.7215 7.7568 12.221 7.53263 12.6012C7.45641 12.7205 7.37571 12.8222 7.25017 12.8841C7.09774 12.968 6.96324 13.1007 6.89151 13.2333C6.72562 13.5073 6.73459 13.8521 6.90047 14.1394L7.20982 14.6699C7.37571 14.9528 7.68506 15.1296 8.00786 15.1296C8.1603 15.1296 8.33963 15.0854 8.4831 14.997C8.59519 14.9218 8.72969 14.8953 8.87764 14.8953C9.32149 14.8953 9.69361 15.2622 9.70258 15.6998C9.70258 16.2081 10.115 16.6059 10.6351 16.6059H11.2449C11.7604 16.6059 12.1729 16.2081 12.1729 15.6998C12.1864 15.2622 12.5585 14.8953 13.0023 14.8953C13.1458 14.8953 13.2803 14.9218 13.3969 14.997C13.5403 15.0854 13.7152 15.1296 13.8721 15.1296C14.1904 15.1296 14.4998 14.9528 14.6657 14.6699L14.9795 14.1394C15.1409 13.8433 15.1544 13.5073 14.9885 13.2333" fill="#E31352"/>
</g>
<g filter="url(#filter2_b_5002_3423)">
<mask id="path-3-outside-1_5002_3423" maskUnits="userSpaceOnUse" x="6.60059" y="4.82251" width="21" height="22" fill="black">
<rect fill="white" x="6.60059" y="4.82251" width="21" height="22"/>
<path d="M26.9188 18.5809C26.7185 18.2715 26.4339 17.9621 26.065 17.7661C25.7699 17.6217 25.5802 17.3845 25.4115 17.106C24.874 16.219 25.1902 15.0535 26.0861 14.5275C27.1402 13.9396 27.4775 12.6297 26.8661 11.6087L26.1599 10.3916C25.5591 9.37052 24.2415 9.00953 23.198 9.60774C22.2705 10.1028 21.0794 9.77276 20.5418 8.89608C20.3732 8.60728 20.2783 8.29787 20.2994 7.98845C20.331 7.5862 20.2045 7.20458 20.0148 6.89516C19.6248 6.2557 18.9186 5.82251 18.1386 5.82251H16.6524C15.883 5.84314 15.1767 6.2557 14.7868 6.89516C14.5865 7.20458 14.4705 7.5862 14.4916 7.98845C14.5127 8.29787 14.4178 8.60728 14.2492 8.89608C13.7116 9.77276 12.5206 10.1028 11.6035 9.60774C10.5495 9.00953 9.24247 9.37052 8.63113 10.3916L7.92492 11.6087C7.32411 12.6297 7.66141 13.9396 8.70491 14.5275C9.60085 15.0535 9.91706 16.219 9.39004 17.106C9.21085 17.3845 9.02112 17.6217 8.72599 17.7661C8.36762 17.9621 8.0514 18.2715 7.88276 18.5809C7.49276 19.2204 7.51384 20.0249 7.90384 20.6953L8.63113 21.9329C9.02112 22.593 9.74842 23.0056 10.5073 23.0056C10.8657 23.0056 11.2873 22.9025 11.6246 22.6962C11.8881 22.5208 12.2043 22.459 12.5522 22.459C13.5957 22.459 14.4705 23.315 14.4916 24.3361C14.4916 25.5222 15.4613 26.4505 16.684 26.4505H18.1175C19.3297 26.4505 20.2994 25.5222 20.2994 24.3361C20.331 23.315 21.2059 22.459 22.2494 22.459C22.5867 22.459 22.9029 22.5208 23.1769 22.6962C23.5142 22.9025 23.9253 23.0056 24.2942 23.0056C25.0426 23.0056 25.7699 22.593 26.1599 21.9329L26.8977 20.6953C27.2772 20.0042 27.3088 19.2204 26.9188 18.5809"/>
</mask>
<path d="M26.9188 18.5809C26.7185 18.2715 26.4339 17.9621 26.065 17.7661C25.7699 17.6217 25.5802 17.3845 25.4115 17.106C24.874 16.219 25.1902 15.0535 26.0861 14.5275C27.1402 13.9396 27.4775 12.6297 26.8661 11.6087L26.1599 10.3916C25.5591 9.37052 24.2415 9.00953 23.198 9.60774C22.2705 10.1028 21.0794 9.77276 20.5418 8.89608C20.3732 8.60728 20.2783 8.29787 20.2994 7.98845C20.331 7.5862 20.2045 7.20458 20.0148 6.89516C19.6248 6.2557 18.9186 5.82251 18.1386 5.82251H16.6524C15.883 5.84314 15.1767 6.2557 14.7868 6.89516C14.5865 7.20458 14.4705 7.5862 14.4916 7.98845C14.5127 8.29787 14.4178 8.60728 14.2492 8.89608C13.7116 9.77276 12.5206 10.1028 11.6035 9.60774C10.5495 9.00953 9.24247 9.37052 8.63113 10.3916L7.92492 11.6087C7.32411 12.6297 7.66141 13.9396 8.70491 14.5275C9.60085 15.0535 9.91706 16.219 9.39004 17.106C9.21085 17.3845 9.02112 17.6217 8.72599 17.7661C8.36762 17.9621 8.0514 18.2715 7.88276 18.5809C7.49276 19.2204 7.51384 20.0249 7.90384 20.6953L8.63113 21.9329C9.02112 22.593 9.74842 23.0056 10.5073 23.0056C10.8657 23.0056 11.2873 22.9025 11.6246 22.6962C11.8881 22.5208 12.2043 22.459 12.5522 22.459C13.5957 22.459 14.4705 23.315 14.4916 24.3361C14.4916 25.5222 15.4613 26.4505 16.684 26.4505H18.1175C19.3297 26.4505 20.2994 25.5222 20.2994 24.3361C20.331 23.315 21.2059 22.459 22.2494 22.459C22.5867 22.459 22.9029 22.5208 23.1769 22.6962C23.5142 22.9025 23.9253 23.0056 24.2942 23.0056C25.0426 23.0056 25.7699 22.593 26.1599 21.9329L26.8977 20.6953C27.2772 20.0042 27.3088 19.2204 26.9188 18.5809" fill="#FF749F" fill-opacity="0.35"/>
<path d="M26.7068 18.7181C26.7826 18.8353 26.9389 18.8687 27.0561 18.793C27.1732 18.7172 27.2067 18.5608 27.1309 18.4437L26.7068 18.7181ZM26.065 17.7661L26.1836 17.5429L26.176 17.5392L26.065 17.7661ZM25.4115 17.106L25.6276 16.9752L25.6275 16.9751L25.4115 17.106ZM26.0861 14.5275L25.963 14.3069L25.9582 14.3097L26.0861 14.5275ZM26.8661 11.6087L26.6476 11.7354L26.6494 11.7384L26.8661 11.6087ZM26.1599 10.3916L26.3784 10.2648L26.3776 10.2635L26.1599 10.3916ZM23.198 9.60774L23.317 9.83068L23.3237 9.82687L23.198 9.60774ZM20.5418 8.89608L20.3237 9.02348L20.3265 9.02811L20.5418 8.89608ZM20.2994 7.98845L20.0476 7.96865L20.0474 7.97128L20.2994 7.98845ZM20.0148 6.89516L19.7992 7.02668L19.7995 7.0272L20.0148 6.89516ZM16.6524 5.82251V5.56983L16.6456 5.57001L16.6524 5.82251ZM14.7868 6.89516L14.9989 7.03246L15.0024 7.02668L14.7868 6.89516ZM14.4916 7.98845L14.2393 8.00167L14.2396 8.00561L14.4916 7.98845ZM14.2492 8.89608L14.4646 9.02814L14.4673 9.02345L14.2492 8.89608ZM11.6035 9.60774L11.4788 9.82746L11.4835 9.83001L11.6035 9.60774ZM8.63113 10.3916L8.41439 10.2618L8.41266 10.2648L8.63113 10.3916ZM7.92492 11.6087L8.14262 11.7367L8.14339 11.7354L7.92492 11.6087ZM8.70491 14.5275L8.83282 14.3097L8.82889 14.3074L8.70491 14.5275ZM9.39004 17.106L9.60259 17.2428L9.60719 17.235L9.39004 17.106ZM8.72599 17.7661L8.61487 17.539L8.60481 17.5445L8.72599 17.7661ZM7.88276 18.5809L8.09866 18.7126L8.10454 18.7018L7.88276 18.5809ZM7.90384 20.6953L7.6855 20.8223L7.68607 20.8232L7.90384 20.6953ZM8.63113 21.9329L8.41336 22.0609L8.41366 22.0614L8.63113 21.9329ZM11.6246 22.6962L11.7565 22.9118L11.7645 22.9065L11.6246 22.6962ZM14.4916 24.3361L14.7443 24.3361L14.7442 24.3309L14.4916 24.3361ZM20.2994 24.3361L20.0468 24.3283V24.3361H20.2994ZM23.1769 22.6962L23.0408 22.909L23.0452 22.9117L23.1769 22.6962ZM26.1599 21.9329L25.9429 21.8036L25.9424 21.8045L26.1599 21.9329ZM26.8977 20.6953L27.1148 20.8247L27.1191 20.8168L26.8977 20.6953ZM27.1345 18.4494C27.0618 18.3303 26.9064 18.2926 26.7873 18.3653C26.6682 18.4379 26.6305 18.5933 26.7032 18.7124L27.1345 18.4494ZM27.1309 18.4437C26.9147 18.1096 26.6009 17.7648 26.1835 17.543L25.9465 17.9892C26.267 18.1594 26.5224 18.4333 26.7068 18.7181L27.1309 18.4437ZM26.176 17.5392C25.9452 17.4263 25.7867 17.2379 25.6276 16.9752L25.1955 17.2368C25.3736 17.5311 25.5946 17.8171 25.954 17.993L26.176 17.5392ZM25.6275 16.9751C25.1658 16.2131 25.4349 15.2027 26.214 14.7453L25.9582 14.3097C24.9454 14.9043 24.5822 16.2249 25.1955 17.2369L25.6275 16.9751ZM26.2091 14.7481C27.3889 14.0901 27.7666 12.6211 27.0828 11.4789L26.6494 11.7384C27.1883 12.6384 26.8914 13.7891 25.9631 14.3069L26.2091 14.7481ZM27.0846 11.4819L26.3784 10.2648L25.9414 10.5184L26.6476 11.7354L27.0846 11.4819ZM26.3776 10.2635C25.7071 9.12405 24.2369 8.72106 23.0724 9.38861L23.3237 9.82687C24.2462 9.298 25.411 9.61699 25.9422 10.5197L26.3776 10.2635ZM23.0791 9.38491C22.2691 9.81723 21.2247 9.52648 20.7572 8.76404L20.3265 9.02811C20.9341 10.019 22.2718 10.3884 23.317 9.83057L23.0791 9.38491ZM20.76 8.7687C20.6092 8.51062 20.5347 8.25138 20.5514 8.00561L20.0474 7.97128C20.022 8.34435 20.1371 8.70395 20.3237 9.02345L20.76 8.7687ZM20.5512 8.00824C20.588 7.54079 20.4407 7.10656 20.2301 6.76313L19.7995 7.0272C19.9684 7.3026 20.0741 7.63161 20.0476 7.96865L20.5512 8.00824ZM20.2305 6.76365C19.7979 6.05445 19.0129 5.56992 18.1386 5.56992V6.0751C18.8243 6.0751 19.4517 6.45694 19.7992 7.02668L20.2305 6.76365ZM18.1386 5.56992H16.6524V6.0751H18.1386V5.56992ZM16.6456 5.57001C15.791 5.59292 15.006 6.05062 14.5711 6.76365L15.0024 7.02668C15.3475 6.46077 15.9749 6.09335 16.6592 6.07501L16.6456 5.57001ZM14.5747 6.75792C14.3476 7.10875 14.2153 7.54254 14.2394 8.00167L14.7439 7.97523C14.7258 7.62987 14.8253 7.30042 14.9988 7.03241L14.5747 6.75792ZM14.2396 8.00561C14.2564 8.25138 14.1818 8.51062 14.0311 8.7687L14.4673 9.02345C14.6539 8.70395 14.769 8.34435 14.7436 7.97128L14.2396 8.00561ZM14.0339 8.76404C13.5658 9.5273 12.5216 9.81634 11.7235 9.38548L11.4835 9.83001C12.5195 10.3893 13.8574 10.0182 14.4645 9.02811L14.0339 8.76404ZM11.7282 9.38807C10.5533 8.72124 9.09531 9.1246 8.41441 10.2619L8.84784 10.5214C9.38964 9.61644 10.5457 9.29782 11.4789 9.82742L11.7282 9.38807ZM8.41266 10.2648L7.70645 11.4819L8.14339 11.7354L8.8496 10.5184L8.41266 10.2648ZM7.70722 11.4806C7.03586 12.6216 7.41233 14.0892 8.58093 14.7476L8.82889 14.3074C7.91048 13.79 7.61236 12.6379 8.14262 11.7367L7.70722 11.4806ZM8.57703 14.7453C9.35613 15.2027 9.6261 16.2142 9.17289 16.977L9.60719 17.235C10.208 16.2238 9.84557 14.9043 8.8328 14.3097L8.57703 14.7453ZM9.17763 16.9693C9.0053 17.2371 8.84651 17.4259 8.61499 17.5392L8.837 17.993C9.19574 17.8175 9.4164 17.5318 9.60245 17.2427L9.17763 16.9693ZM8.60481 17.5445C8.20903 17.7609 7.85543 18.1032 7.66097 18.46L8.10454 18.7018C8.24738 18.4397 8.5262 18.1632 8.84718 17.9877L8.60481 17.5445ZM7.66711 18.4494C7.22388 19.1761 7.25389 20.0803 7.68551 20.8223L8.12217 20.5683C7.7738 19.9694 7.76164 19.2646 8.0984 18.7124L7.66711 18.4494ZM7.68607 20.8232L8.41336 22.0609L8.8489 21.805L8.12161 20.5673L7.68607 20.8232ZM8.41366 22.0614C8.84913 22.7985 9.65914 23.2582 10.5073 23.2582V22.753C9.83769 22.753 9.19312 22.3876 8.8486 21.8045L8.41366 22.0614ZM10.5073 23.2582C10.9077 23.2582 11.3758 23.1444 11.7564 22.9117L11.4928 22.4807C11.1989 22.6605 10.8237 22.753 10.5073 22.753V23.2582ZM11.7645 22.9065C11.9714 22.7689 12.232 22.7115 12.5522 22.7115V22.2064C12.1767 22.2064 11.8049 22.2728 11.4847 22.4859L11.7645 22.9065ZM12.5522 22.7115C13.4602 22.7115 14.2209 23.4597 14.2391 24.3413L14.7442 24.3309C14.7202 23.1703 13.7311 22.2064 12.5522 22.2064V22.7115ZM14.239 24.3361C14.239 25.6708 15.3311 26.7031 16.684 26.7031V26.1979C15.5916 26.1979 14.7442 25.3736 14.7442 24.3361H14.239ZM16.684 26.7031H18.1175V26.1979H16.684V26.7031ZM18.1175 26.7031C19.4607 26.7031 20.552 25.67 20.552 24.3361H20.0468C20.0468 25.3744 19.1986 26.1979 18.1175 26.1979V26.7031ZM20.5519 24.3439C20.5793 23.4597 21.3419 22.7115 22.2494 22.7115V22.2064C21.0699 22.2064 20.0828 23.1703 20.0469 24.3283L20.5519 24.3439ZM22.2494 22.7115C22.5569 22.7115 22.8206 22.768 23.0408 22.9089L23.3131 22.4834C22.9852 22.2737 22.6165 22.2064 22.2494 22.2064V22.7115ZM23.0452 22.9117C23.4253 23.1441 23.8827 23.2582 24.2942 23.2582V22.753C23.968 22.753 23.6032 22.6608 23.3087 22.4807L23.0452 22.9117ZM24.2942 23.2582C25.1326 23.2582 25.9422 22.7979 26.3774 22.0614L25.9424 21.8045C25.5976 22.3882 24.9527 22.753 24.2942 22.753V23.2582ZM26.3769 22.0623L27.1147 20.8246L26.6808 20.5659L25.9429 21.8036L26.3769 22.0623ZM27.1191 20.8168C27.5342 20.061 27.5796 19.1792 27.1345 18.4494L26.7032 18.7124C27.038 19.2615 27.0202 19.9475 26.6763 20.5737L27.1191 20.8168Z" fill="url(#paint1_linear_5002_3423)" mask="url(#path-3-outside-1_5002_3423)"/>
</g>
<g filter="url(#filter3_bd_5002_3423)">
<path d="M17.4144 18.9749C15.7595 18.9749 14.4209 17.6856 14.4209 16.0663C14.4209 14.447 15.7595 13.1475 17.4144 13.1475C19.0692 13.1475 20.3763 14.447 20.3763 16.0663C20.3763 17.6856 19.0692 18.9749 17.4144 18.9749Z" fill="url(#paint2_linear_5002_3423)"/>
<path d="M17.4144 18.9243C15.7859 18.9243 14.4714 17.6562 14.4714 16.0663C14.4714 14.4762 15.7862 13.198 17.4144 13.198C19.0419 13.198 20.3257 14.4755 20.3257 16.0663C20.3257 17.6569 19.0421 18.9243 17.4144 18.9243Z" stroke="url(#paint3_linear_5002_3423)" stroke-width="0.101035"/>
</g>
</g>
</g>
<defs>
<filter id="filter0_bdi_5002_3423" x="-1.86599" y="0.74867" width="25.5015" height="26.5115" filterUnits="userSpaceOnUse" color-interpolation-filters="sRGB">
<feFlood flood-opacity="0" result="BackgroundImageFix"/>
<feGaussianBlur in="BackgroundImageFix" stdDeviation="1.02828"/>
<feComposite in2="SourceAlpha" operator="in" result="effect1_backgroundBlur_5002_3423"/>
<feColorMatrix in="SourceAlpha" type="matrix" values="0 0 0 0 0 0 0 0 0 0 0 0 0 0 0 0 0 0 127 0" result="hardAlpha"/>
<feOffset dy="1.8671"/>
<feGaussianBlur stdDeviation="2.33387"/>
<feComposite in2="hardAlpha" operator="out"/>
<feColorMatrix type="matrix" values="0 0 0 0 0.666667 0 0 0 0 0 0 0 0 0 0.2 0 0 0 0.15 0"/>
<feBlend mode="normal" in2="effect1_backgroundBlur_5002_3423" result="effect2_dropShadow_5002_3423"/>
<feBlend mode="normal" in="SourceGraphic" in2="effect2_dropShadow_5002_3423" result="shape"/>
<feColorMatrix in="SourceAlpha" type="matrix" values="0 0 0 0 0 0 0 0 0 0 0 0 0 0 0 0 0 0 127 0" result="hardAlpha"/>
<feOffset dx="-0.539849" dy="-1.02828"/>
<feGaussianBlur stdDeviation="0.115682"/>
<feComposite in2="hardAlpha" operator="arithmetic" k2="-1" k3="1"/>
<feColorMatrix type="matrix" values="0 0 0 0 1 0 0 0 0 0.8 0 0 0 0 0.896 0 0 0 0.5 0"/>
<feBlend mode="normal" in2="shape" result="effect3_innerShadow_5002_3423"/>
</filter>
<filter id="filter1_f_5002_3423" x="2.73009" y="3.72399" width="16.4178" height="16.9234" filterUnits="userSpaceOnUse" color-interpolation-filters="sRGB">
<feFlood flood-opacity="0" result="BackgroundImageFix"/>
<feBlend mode="normal" in="SourceGraphic" in2="BackgroundImageFix" result="shape"/>
<feGaussianBlur stdDeviation="2.0207" result="effect1_foregroundBlur_5002_3423"/>
</filter>
<filter id="filter2_b_5002_3423" x="1.28556" y="-0.49227" width="32.2267" height="33.2575" filterUnits="userSpaceOnUse" color-interpolation-filters="sRGB">
<feFlood flood-opacity="0" result="BackgroundImageFix"/>
<feGaussianBlur in="BackgroundImageFix" stdDeviation="3.03105"/>
<feComposite in2="SourceAlpha" operator="in" result="effect1_backgroundBlur_5002_3423"/>
<feBlend mode="normal" in="SourceGraphic" in2="effect1_backgroundBlur_5002_3423" result="shape"/>
</filter>
<filter id="filter3_bd_5002_3423" x="10.6321" y="9.35865" width="13.5327" height="13.405" filterUnits="userSpaceOnUse" color-interpolation-filters="sRGB">
<feFlood flood-opacity="0" result="BackgroundImageFix"/>
<feGaussianBlur in="BackgroundImageFix" stdDeviation="1.8944"/>
<feComposite in2="SourceAlpha" operator="in" result="effect1_backgroundBlur_5002_3423"/>
<feColorMatrix in="SourceAlpha" type="matrix" values="0 0 0 0 0 0 0 0 0 0 0 0 0 0 0 0 0 0 127 0" result="hardAlpha"/>
<feOffset dx="1.26294" dy="1.26294"/>
<feGaussianBlur stdDeviation="1.26294"/>
<feColorMatrix type="matrix" values="0 0 0 0 1 0 0 0 0 0.321569 0 0 0 0 0.54902 0 0 0 0.5 0"/>
<feBlend mode="normal" in2="effect1_backgroundBlur_5002_3423" result="effect2_dropShadow_5002_3423"/>
<feBlend mode="normal" in="SourceGraphic" in2="effect2_dropShadow_5002_3423" result="shape"/>
</filter>
<linearGradient id="paint0_linear_5002_3423" x1="4.99315" y1="5.92439" x2="21.3767" y2="15.3246" gradientUnits="userSpaceOnUse">
<stop stop-color="#FF166A"/>
<stop offset="1" stop-color="#FF6BD6"/>
</linearGradient>
<linearGradient id="paint1_linear_5002_3423" x1="10.72" y1="8.22569" x2="24.0047" y2="23.8563" gradientUnits="userSpaceOnUse">
<stop stop-color="white" stop-opacity="0.25"/>
<stop offset="1" stop-color="white" stop-opacity="0"/>
</linearGradient>
<linearGradient id="paint2_linear_5002_3423" x1="19.954" y1="14.1998" x2="13.3206" y2="14.4208" gradientUnits="userSpaceOnUse">
<stop stop-color="white"/>
<stop offset="1" stop-color="white" stop-opacity="0.2"/>
</linearGradient>
<linearGradient id="paint3_linear_5002_3423" x1="15.3689" y1="13.8264" x2="19.0683" y2="18.5088" gradientUnits="userSpaceOnUse">
<stop stop-color="white" stop-opacity="0.25"/>
<stop offset="1" stop-color="white" stop-opacity="0"/>
</linearGradient>
<clipPath id="clip0_5002_3423">
<rect width="30" height="30" fill="white"/>
</clipPath>
<clipPath id="clip1_5002_3423">
<rect width="30" height="30" fill="white"/>
</clipPath>
</defs>
</svg>
