<svg width="30" height="30" viewBox="0 0 30 30" fill="none" xmlns="http://www.w3.org/2000/svg">
<path d="M15.1557 3.32646L7.25379 5.44377C4.38757 6.21178 3.16844 8.33718 3.93896 11.2128L6.54866 20.9523C7.33182 23.8751 9.44022 25.0685 12.3064 24.3005L20.2084 22.1832C23.1208 21.4028 24.3029 19.3277 23.5197 16.405L20.91 6.66545C20.1395 3.7898 18.0681 2.54608 15.1557 3.32646Z" fill="url(#paint0_linear_1436_3001)" fill-opacity="0.9"/>
<g filter="url(#filter0_f_1436_3001)">
<rect x="9.74805" y="20.9028" width="12.6058" height="10.6747" rx="3.43691" transform="rotate(-105 9.74805 20.9028)" fill="#8237FF" fill-opacity="0.5"/>
</g>
<g filter="url(#filter1_b_1436_3001)">
<path d="M22.5866 8.36646H14.406C11.4386 8.36646 9.71094 10.1039 9.71094 13.081V23.1641C9.71094 26.19 11.4386 27.8884 14.406 27.8884H22.5866C25.6018 27.8884 27.2807 26.19 27.2807 23.1641V13.081C27.2807 10.1039 25.6018 8.36646 22.5866 8.36646Z" fill="#E290FF" fill-opacity="0.35"/>
<path d="M22.5866 8.24371H14.406C12.8984 8.24371 11.6901 8.68552 10.8587 9.52072C10.0274 10.3558 9.58819 11.5689 9.58819 13.081V23.1641C9.58819 24.7001 10.0271 25.9159 10.8589 26.7477C11.6907 27.5795 12.8992 28.0111 14.406 28.0111H22.5866C24.1169 28.0111 25.3256 27.5797 26.1515 26.7474C26.9772 25.9152 27.4034 24.6992 27.4034 23.1641V13.081C27.4034 11.5698 26.977 10.3566 26.1517 9.52106C25.3261 8.68527 24.1176 8.24371 22.5866 8.24371Z" stroke="url(#paint1_linear_1436_3001)" stroke-width="0.245494" stroke-linecap="round" stroke-linejoin="round"/>
</g>
<g filter="url(#filter2_bd_1436_3001)">
<mask id="path-5-inside-1_1436_3001" fill="white">
<path fill-rule="evenodd" clip-rule="evenodd" d="M14.6684 12.9053V12.915C14.2477 12.915 13.9071 13.2567 13.9071 13.6764C13.9071 14.0961 14.2477 14.4377 14.6684 14.4377H17.586C18.0067 14.4377 18.3483 14.0961 18.3483 13.6657C18.3483 13.2469 18.0067 12.9053 17.586 12.9053H14.6684ZM22.321 18.8499H14.6684C14.2477 18.8499 13.9071 18.5083 13.9071 18.0886C13.9071 17.6688 14.2477 17.3262 14.6684 17.3262H22.321C22.7408 17.3262 23.0824 17.6688 23.0824 18.0886C23.0824 18.5083 22.7408 18.8499 22.321 18.8499ZM22.3211 23.3108H14.6685C14.3757 23.3499 14.0926 23.2035 13.9365 22.9594C13.7803 22.7057 13.7803 22.3835 13.9365 22.1395C14.0926 21.8857 14.3757 21.7491 14.6685 21.7784H22.3211C22.7106 21.8174 23.0044 22.1493 23.0044 22.5495C23.0044 22.9389 22.7106 23.2718 22.3211 23.3108Z"/>
</mask>
<path fill-rule="evenodd" clip-rule="evenodd" d="M14.6684 12.9053V12.915C14.2477 12.915 13.9071 13.2567 13.9071 13.6764C13.9071 14.0961 14.2477 14.4377 14.6684 14.4377H17.586C18.0067 14.4377 18.3483 14.0961 18.3483 13.6657C18.3483 13.2469 18.0067 12.9053 17.586 12.9053H14.6684ZM22.321 18.8499H14.6684C14.2477 18.8499 13.9071 18.5083 13.9071 18.0886C13.9071 17.6688 14.2477 17.3262 14.6684 17.3262H22.321C22.7408 17.3262 23.0824 17.6688 23.0824 18.0886C23.0824 18.5083 22.7408 18.8499 22.321 18.8499ZM22.3211 23.3108H14.6685C14.3757 23.3499 14.0926 23.2035 13.9365 22.9594C13.7803 22.7057 13.7803 22.3835 13.9365 22.1395C14.0926 21.8857 14.3757 21.7491 14.6685 21.7784H22.3211C22.7106 21.8174 23.0044 22.1493 23.0044 22.5495C23.0044 22.9389 22.7106 23.2718 22.3211 23.3108Z" fill="url(#paint2_linear_1436_3001)"/>
<path d="M14.6684 12.915V13.0132H14.7666V12.915H14.6684ZM14.6684 12.9053V12.8071H14.5702V12.9053H14.6684ZM14.6685 23.3108V23.2118L14.6556 23.2135L14.6685 23.3108ZM22.3211 23.3108V23.4095L22.3309 23.4085L22.3211 23.3108ZM13.9365 22.9594L13.8528 23.0109L13.8538 23.0124L13.9365 22.9594ZM13.9365 22.1395L14.0192 22.1925L14.0201 22.191L13.9365 22.1395ZM14.6685 21.7784L14.6587 21.8766H14.6685V21.7784ZM22.3211 21.7784L22.331 21.6802H22.3211V21.7784ZM14.7666 12.915V12.9053H14.5702V12.915H14.7666ZM14.0053 13.6764C14.0053 13.3108 14.3021 13.0132 14.6684 13.0132V12.8168C14.1934 12.8168 13.8089 13.2025 13.8089 13.6764H14.0053ZM14.6684 14.3395C14.3021 14.3395 14.0053 14.042 14.0053 13.6764H13.8089C13.8089 14.1503 14.1934 14.5359 14.6684 14.5359V14.3395ZM17.586 14.3395H14.6684V14.5359H17.586V14.3395ZM18.2501 13.6657C18.2501 14.0427 17.9516 14.3395 17.586 14.3395V14.5359C18.0617 14.5359 18.4465 14.1495 18.4465 13.6657H18.2501ZM17.586 13.0035C17.9526 13.0035 18.2501 13.3013 18.2501 13.6657H18.4465C18.4465 13.1925 18.0608 12.8071 17.586 12.8071V13.0035ZM14.6684 13.0035H17.586V12.8071H14.6684V13.0035ZM14.6684 18.9481H22.321V18.7517H14.6684V18.9481ZM13.8089 18.0886C13.8089 18.5624 14.1934 18.9481 14.6684 18.9481V18.7517C14.3021 18.7517 14.0053 18.4541 14.0053 18.0886H13.8089ZM14.6684 17.228C14.1933 17.228 13.8089 17.6149 13.8089 18.0886H14.0053C14.0053 17.7228 14.3022 17.4244 14.6684 17.4244V17.228ZM22.321 17.228H14.6684V17.4244H22.321V17.228ZM23.1806 18.0886C23.1806 17.6148 22.7952 17.228 22.321 17.228V17.4244C22.6864 17.4244 22.9842 17.7229 22.9842 18.0886H23.1806ZM22.321 18.9481C22.795 18.9481 23.1806 18.5625 23.1806 18.0886H22.9842C22.9842 18.4541 22.6865 18.7517 22.321 18.7517V18.9481ZM14.6685 23.409H22.3211V23.2126H14.6685V23.409ZM13.8538 23.0124C14.0287 23.2857 14.3476 23.4527 14.6815 23.4082L14.6556 23.2135C14.4038 23.2471 14.1566 23.1213 14.0192 22.9065L13.8538 23.0124ZM13.8538 22.0866C13.6765 22.3635 13.6776 22.7262 13.8528 23.0109L14.0201 22.908C13.883 22.6851 13.884 22.4036 14.0192 22.1925L13.8538 22.0866ZM14.6783 21.6807C14.3486 21.6477 14.029 21.8017 13.8528 22.0881L14.0201 22.191C14.1563 21.9697 14.4028 21.8505 14.6588 21.8761L14.6783 21.6807ZM22.3211 21.6802H14.6685V21.8766H22.3211V21.6802ZM23.1026 22.5495C23.1026 22.1007 22.7724 21.7249 22.3309 21.6807L22.3113 21.8761C22.6488 21.9099 22.9062 22.1979 22.9062 22.5495H23.1026ZM22.3309 23.4085C22.7717 23.3644 23.1026 22.9882 23.1026 22.5495H22.9062C22.9062 22.8897 22.6495 23.1792 22.3113 23.2131L22.3309 23.4085Z" fill="url(#paint3_linear_1436_3001)" mask="url(#path-5-inside-1_1436_3001)"/>
</g>
<defs>
<filter id="filter0_f_1436_3001" x="0.62851" y="0.107026" width="25.2869" height="26.6526" filterUnits="userSpaceOnUse" color-interpolation-filters="sRGB">
<feFlood flood-opacity="0" result="BackgroundImageFix"/>
<feBlend mode="normal" in="SourceGraphic" in2="BackgroundImageFix" result="shape"/>
<feGaussianBlur stdDeviation="3.31416" result="effect1_foregroundBlur_1436_3001"/>
</filter>
<filter id="filter1_b_1436_3001" x="3.57397" y="2.229" width="29.8442" height="31.7966" filterUnits="userSpaceOnUse" color-interpolation-filters="sRGB">
<feFlood flood-opacity="0" result="BackgroundImageFix"/>
<feGaussianBlur in="BackgroundImageFix" stdDeviation="2.94592"/>
<feComposite in2="SourceAlpha" operator="in" result="effect1_backgroundBlur_1436_3001"/>
<feBlend mode="normal" in="SourceGraphic" in2="effect1_backgroundBlur_1436_3001" result="shape"/>
</filter>
<filter id="filter2_bd_1436_3001" x="10.1369" y="9.22287" width="16.6275" height="17.7767" filterUnits="userSpaceOnUse" color-interpolation-filters="sRGB">
<feFlood flood-opacity="0" result="BackgroundImageFix"/>
<feGaussianBlur in="BackgroundImageFix" stdDeviation="1.8412"/>
<feComposite in2="SourceAlpha" operator="in" result="effect1_backgroundBlur_1436_3001"/>
<feColorMatrix in="SourceAlpha" type="matrix" values="0 0 0 0 0 0 0 0 0 0 0 0 0 0 0 0 0 0 127 0" result="hardAlpha"/>
<feOffset dx="1.22747" dy="1.22747"/>
<feGaussianBlur stdDeviation="1.22747"/>
<feColorMatrix type="matrix" values="0 0 0 0 0.577356 0 0 0 0 0.359375 0 0 0 0 0.9375 0 0 0 0.5 0"/>
<feBlend mode="normal" in2="effect1_backgroundBlur_1436_3001" result="effect2_dropShadow_1436_3001"/>
<feBlend mode="normal" in="SourceGraphic" in2="effect2_dropShadow_1436_3001" result="shape"/>
</filter>
<linearGradient id="paint0_linear_1436_3001" x1="28.6381" y1="25.8252" x2="11.9473" y2="30.3308" gradientUnits="userSpaceOnUse">
<stop stop-color="#D354FF" stop-opacity="0.9"/>
<stop offset="1" stop-color="#6D48FF" stop-opacity="0.7"/>
</linearGradient>
<linearGradient id="paint1_linear_1436_3001" x1="12.5078" y1="10.6408" x2="25.172" y2="24.7572" gradientUnits="userSpaceOnUse">
<stop stop-color="white" stop-opacity="0.25"/>
<stop offset="1" stop-color="white" stop-opacity="0"/>
</linearGradient>
<linearGradient id="paint2_linear_1436_3001" x1="22.4256" y1="14.7854" x2="12.1052" y2="15.0848" gradientUnits="userSpaceOnUse">
<stop stop-color="white"/>
<stop offset="1" stop-color="white" stop-opacity="0.2"/>
</linearGradient>
<linearGradient id="paint3_linear_1436_3001" x1="15.2939" y1="14.1183" x2="22.0562" y2="21.5695" gradientUnits="userSpaceOnUse">
<stop stop-color="white" stop-opacity="0.25"/>
<stop offset="1" stop-color="white" stop-opacity="0"/>
</linearGradient>
</defs>
</svg>
