<svg width="17" height="16" viewBox="0 0 17 16" fill="none" xmlns="http://www.w3.org/2000/svg">
<path d="M6.31787 4.74858H11.1187C11.4424 4.74858 11.7541 4.60401 11.962 4.34186C12.4574 3.72065 12.9272 2.95805 13.0327 2.27488C13.245 0.906962 12.6893 0.212672 11.078 0.212672C9.46669 0.212672 10.0118 1.32798 9.38537 1.42013C8.91855 1.48845 8.93511 0.838645 8.20174 0.214262C7.67468 -0.232179 7.08437 1.02929 6.38864 1.03724C5.57697 1.04836 4.4355 0.811635 4.4355 2.27488C4.4355 2.8659 4.92642 3.66504 5.46252 4.32756C5.67786 4.59288 5.98808 4.74858 6.31787 4.74858ZM12.3068 6.05136C12.0508 5.74473 11.6789 5.57314 11.2918 5.57314H6.16879C5.79833 5.57314 5.44144 5.73043 5.18544 6.01323C3.57563 7.79265 2.09082 10.3331 2.09082 12.1856C2.09082 13.8188 3.64641 15.881 5.56492 15.881H11.5132C13.4317 15.881 14.9873 13.8363 14.9873 12.1856C14.9873 10.2997 13.7931 7.83078 12.3068 6.05136ZM10.7422 8.29946L9.71216 10.2711C9.6218 10.4443 9.74077 10.6572 9.9275 10.6572H10.2196C10.3552 10.6572 10.4666 10.7732 10.4666 10.9177C10.4666 11.0607 10.3567 11.1783 10.2196 11.1783H9.48476C9.3417 11.1783 9.22726 11.299 9.22575 11.45V11.5787C9.22575 11.7216 9.33568 11.8392 9.47272 11.8392H10.2196C10.3552 11.8392 10.4666 11.9552 10.4666 12.0998C10.4666 12.2443 10.3567 12.3603 10.2196 12.3603H9.47272C9.33718 12.3603 9.22575 12.4763 9.22575 12.6209V13.2834C9.22575 13.4264 9.11582 13.5439 8.97879 13.5439H8.53153C8.396 13.5439 8.28457 13.428 8.28457 13.2834V12.6209C8.28457 12.4779 8.17464 12.3603 8.0376 12.3603H7.29821C7.16268 12.3603 7.05124 12.2443 7.05124 12.0998C7.05124 11.9552 7.16117 11.8392 7.29821 11.8392H8.0361C8.17313 11.8392 8.28307 11.7232 8.28457 11.5787L8.28608 11.4516C8.28758 11.3006 8.17163 11.1767 8.02706 11.1767H7.29821C7.16268 11.1767 7.05124 11.0607 7.05124 10.9161C7.05124 10.7732 7.16117 10.6556 7.29821 10.6556H7.58282C7.77106 10.6556 7.88852 10.4427 7.79817 10.2695L6.76813 8.29788C6.67778 8.1247 6.79674 7.9118 6.98347 7.9118H7.4744C7.56776 7.9118 7.6536 7.96741 7.69426 8.05479L8.53304 9.8199C8.62339 10.0106 8.88241 10.0106 8.97427 9.8199L9.81305 8.05479C9.85522 7.96741 9.93955 7.9118 10.0329 7.9118H10.5238C10.7136 7.91498 10.8325 8.12629 10.7422 8.29946Z" fill="#FF5757"/>
</svg>
