<svg width="17" height="16" viewBox="0 0 17 16" fill="none" xmlns="http://www.w3.org/2000/svg">
<path fill-rule="evenodd" clip-rule="evenodd" d="M6.36589 4.27357C6.36589 4.72767 6.45533 5.17732 6.6291 5.59685C6.80288 6.01639 7.05758 6.39758 7.37868 6.71868C7.69978 7.03977 8.08097 7.29448 8.5005 7.46825C8.92004 7.64203 9.36969 7.73147 9.82378 7.73147C10.2779 7.73147 10.7275 7.64203 11.1471 7.46825C11.5666 7.29448 11.9478 7.03977 12.2689 6.71868C12.59 6.39758 12.8447 6.01639 13.0185 5.59685C13.1922 5.17732 13.2817 4.72767 13.2817 4.27357C13.2817 3.35648 12.9174 2.47695 12.2689 1.82847C11.6204 1.17999 10.7409 0.815674 9.82378 0.815674C8.90669 0.815674 8.02716 1.17999 7.37868 1.82847C6.7302 2.47695 6.36589 3.35648 6.36589 4.27357ZM16.5203 11.8027C16.2838 10.472 13.3768 9.41984 9.82355 9.41984C6.27033 9.41984 3.36324 10.472 3.12679 11.8027H3.10937V14.7868C3.10937 15.201 3.44573 15.5374 3.85998 15.5374H15.788C16.2023 15.5374 16.5386 15.201 16.5386 14.7868V11.8027H16.5203ZM3.75043 6.98539V8.41969C3.75043 8.77437 3.46448 9.06031 3.1098 9.06031C2.75512 9.06031 2.46826 8.77346 2.46826 8.41878V6.98448H1.1806C0.825922 6.98448 0.539062 6.69762 0.539062 6.34294C0.539062 5.98826 0.825922 5.7014 1.1806 5.7014H2.46735V4.37616C2.46735 4.02148 2.75421 3.73462 3.10889 3.73462C3.46357 3.73462 3.75043 4.02148 3.75043 4.37616V5.70231H5.03809C5.39277 5.70231 5.67963 5.98917 5.67963 6.34385C5.67963 6.69853 5.39277 6.98539 5.03809 6.98539H3.75043Z" fill="#2CCF32"/>
</svg>
