<svg width="17" height="16" viewBox="0 0 17 16" fill="none" xmlns="http://www.w3.org/2000/svg">
<path d="M14.6116 11.4008V12.7935V13.5547C14.6116 13.8462 14.5603 14.1215 14.4577 14.3806C14.3552 14.6397 14.2148 14.861 14.0367 15.0445C13.8586 15.2281 13.648 15.3738 13.4051 15.4818C13.1622 15.5897 12.895 15.6437 12.6035 15.6437H4.40914C4.11764 15.6437 3.85314 15.5924 3.61562 15.4899C3.3781 15.3873 3.17297 15.247 3.00023 15.0688C2.82749 14.8907 2.69524 14.6829 2.60347 14.4453C2.5117 14.2078 2.46582 13.9541 2.46582 13.6842V8.5344C2.46582 8.23211 2.57108 7.9784 2.78161 7.77327C2.99214 7.56814 3.23775 7.46558 3.51845 7.46558H13.5428C13.8451 7.46558 14.0988 7.56814 14.3039 7.77327C14.509 7.9784 14.6116 8.23211 14.6116 8.5344V11.4008Z" fill="#FF9500"/>
<path d="M8.52172 0.356445C8.0035 0.356445 7.50418 0.453611 7.02374 0.647944C6.54331 0.842276 6.11686 1.10948 5.74439 1.44956C5.37192 1.78965 5.07232 2.18641 4.8456 2.63985C4.61888 3.09329 4.50552 3.57912 4.50552 4.09734V7.49046H6.46504V4.55079C6.46504 3.87062 6.65667 3.34161 7.03994 2.96374C7.4232 2.58587 7.93873 2.39693 8.5865 2.39693C9.1695 2.39693 9.63913 2.58587 9.99541 2.96374C10.3517 3.34161 10.5298 3.87062 10.5298 4.55079V5.35642H12.5703V4.09734C12.5703 3.57912 12.4677 3.09329 12.2626 2.63985C12.0575 2.18641 11.7741 1.78965 11.4124 1.44956C11.0507 1.10948 10.6243 0.842276 10.1331 0.647944C9.64183 0.453612 9.10472 0.356445 8.52172 0.356445Z" fill="#FF9500"/>
</svg>
