<svg width="17" height="16" viewBox="0 0 17 16" fill="none" xmlns="http://www.w3.org/2000/svg">
<path d="M15.5759 2.87948C15.5761 2.57901 15.4465 2.29072 15.2155 2.0778C14.9844 1.86489 14.6708 1.74472 14.3433 1.74365H2.7326C2.11586 1.74365 1.5 2.31116 1.5 2.87948V4.63005H15.5759V2.87948ZM1.5 5.8462V12.8921C1.5 13.6832 1.99313 14.2555 2.7326 14.2563H14.3433C14.8364 14.2563 15.0837 14.1433 15.3296 13.8019C13.4802 10.733 11.2614 11.3005 11.2614 11.3005V13.1197L8.17943 10.1647L11.2614 7.78083V9.59517C11.2614 9.59517 15.0797 9.14067 15.5768 13.3466V5.8462H1.5Z" fill="#975DFF"/>
</svg>
