<svg width="17" height="16" viewBox="0 0 17 16" fill="none" xmlns="http://www.w3.org/2000/svg">
<path d="M9.52913 14.1622C9.90138 14.1622 10.1924 14.0201 10.5511 13.6816L15.9115 8.65288C16.1755 8.40245 16.277 8.11142 16.277 7.861C16.277 7.60381 16.1755 7.31954 15.9115 7.06912L10.5511 2.0742C10.1586 1.70871 9.90138 1.55981 9.54267 1.55981C9.00121 1.55981 8.61543 1.97944 8.61543 2.50736V4.91684H8.44622C3.77617 4.91684 1.61035 7.91514 1.61035 12.8289C1.61035 13.6884 1.97583 14.1351 2.44961 14.1351C2.80832 14.1351 3.13996 14.0201 3.40392 13.526C4.46653 11.5497 5.97583 10.8255 8.44622 10.8255H8.61543V13.2485C8.61543 13.7764 9.00121 14.1622 9.52913 14.1622Z" fill="#FF8A00"/>
</svg>
