<svg width="30" height="30" viewBox="0 0 30 30" fill="none" xmlns="http://www.w3.org/2000/svg">
<g clip-path="url(#clip0_5002_3412)">
<g filter="url(#filter0_di_5002_3412)">
<path d="M14.4528 17.976C14.3172 18.2555 14.3279 18.5844 14.4807 18.8551L16.6516 22.5749C16.8353 22.8903 16.8174 23.2837 16.606 23.5817C16.4029 23.885 16.0435 24.0435 15.6826 23.9916L11.4166 23.4286C11.2678 23.4076 11.1164 23.4224 10.9733 23.47V23.47C10.8273 23.5232 10.6754 23.578 10.5707 23.6928C10.5677 23.696 10.5648 23.6992 10.562 23.7025L7.66126 26.8878C7.51647 27.0414 7.32725 27.1461 7.11908 27.1863C6.6069 27.2702 6.12084 26.9303 6.02382 26.4201L5.29277 22.1756C5.23462 21.8676 5.03063 21.6073 4.74579 21.4773L0.790757 19.7098C0.459901 19.5618 0.245122 19.2367 0.239699 18.8746C0.231334 18.5146 0.422877 18.1798 0.737963 18.0054L4.54773 15.9557C4.84215 15.8126 5.04301 15.5286 5.0803 15.2032L5.52825 10.9232C5.54083 10.827 5.56792 10.7327 5.61047 10.6457L5.61532 10.638C5.64682 10.5878 5.67198 10.5335 5.70261 10.4828V10.4828C5.73351 10.4316 5.77759 10.3904 5.82329 10.3518L5.83103 10.3453V10.3453C5.90825 10.2747 5.99852 10.22 6.09677 10.1842L6.28871 10.1143C6.60453 10.0349 6.93879 10.1194 7.17793 10.3403L10.2925 13.3035C10.5185 13.5209 10.8371 13.6129 11.1439 13.5515L15.379 12.6689C15.7367 12.5936 16.1063 12.7248 16.3368 13.0075C16.5611 13.2934 16.5995 13.6829 16.4354 14.0076L14.4528 17.976Z" fill="url(#paint0_linear_5002_3412)"/>
</g>
<g opacity="0.5" filter="url(#filter1_f_5002_3412)">
<path d="M10.7228 15.8232C8.87049 15.8232 7.36719 17.3269 7.36719 19.1788C7.36719 21.0314 8.87049 22.5344 10.7228 22.5344C12.5784 22.5344 14.0783 21.0314 14.0783 19.1788C14.0783 17.3269 12.5784 15.8232 10.7228 15.8232V15.8232Z" fill="#FF3D22"/>
</g>
<g filter="url(#filter2_b_5002_3412)">
<path d="M24.3303 17.3503C23.9885 17.5476 23.7655 17.901 23.7332 18.2945L23.3647 23.7519C23.3331 24.2144 23.0338 24.6152 22.5993 24.7779C22.1697 24.952 21.6789 24.8625 21.3365 24.5508L17.2529 20.9189C17.1114 20.7908 16.9417 20.6986 16.7573 20.6466L16.4698 20.5743C16.3663 20.5641 16.2607 20.5714 16.1593 20.5978L10.84 21.8794C10.5783 21.9378 10.3047 21.913 10.0573 21.8069C9.45899 21.5302 9.19025 20.8264 9.45181 20.221L11.7079 15.2378C11.8663 14.8726 11.8373 14.4536 11.6305 14.114L8.73215 9.4375C8.48983 9.04608 8.49573 8.55122 8.74801 8.16677C8.99577 7.78232 9.43571 7.56686 9.89126 7.608L15.357 8.16808C15.7685 8.22749 16.1821 8.07196 16.4531 7.75652L19.9739 3.57625C20.0558 3.48401 20.1514 3.40426 20.2581 3.34309L20.3723 3.29281C20.436 3.25017 20.5048 3.21894 20.5778 3.1978L20.7041 3.18442L20.9032 3.15547L21.3499 3.26772C21.7384 3.40935 22.0297 3.73634 22.1236 4.13898L23.2863 9.47357C23.3689 9.86319 23.6384 10.187 24.0046 10.341L29.0859 12.4312C29.5155 12.6068 29.8107 13.0081 29.8515 13.4696C29.8836 13.93 29.6464 14.3668 29.2425 14.5913L24.3303 17.3503Z" fill="#FFD595" fill-opacity="0.58"/>
</g>
</g>
<defs>
<filter id="filter0_di_5002_3412" x="-4.4285" y="7.2843" width="25.8746" height="26.4495" filterUnits="userSpaceOnUse" color-interpolation-filters="sRGB">
<feFlood flood-opacity="0" result="BackgroundImageFix"/>
<feColorMatrix in="SourceAlpha" type="matrix" values="0 0 0 0 0 0 0 0 0 0 0 0 0 0 0 0 0 0 127 0" result="hardAlpha"/>
<feOffset dy="1.86711"/>
<feGaussianBlur stdDeviation="2.33388"/>
<feComposite in2="hardAlpha" operator="out"/>
<feColorMatrix type="matrix" values="0 0 0 0 1 0 0 0 0 0.72 0 0 0 0 0 0 0 0 0.15 0"/>
<feBlend mode="normal" in2="BackgroundImageFix" result="effect1_dropShadow_5002_3412"/>
<feBlend mode="normal" in="SourceGraphic" in2="effect1_dropShadow_5002_3412" result="shape"/>
<feColorMatrix in="SourceAlpha" type="matrix" values="0 0 0 0 0 0 0 0 0 0 0 0 0 0 0 0 0 0 127 0" result="hardAlpha"/>
<feOffset dx="-0.539851" dy="-1.02829"/>
<feGaussianBlur stdDeviation="0.115682"/>
<feComposite in2="hardAlpha" operator="arithmetic" k2="-1" k3="1"/>
<feColorMatrix type="matrix" values="0 0 0 0 1 0 0 0 0 0.970667 0 0 0 0 0.816667 0 0 0 0.6 0"/>
<feBlend mode="normal" in2="shape" result="effect2_innerShadow_5002_3412"/>
</filter>
<filter id="filter1_f_5002_3412" x="2.00858" y="10.4646" width="17.4281" height="17.4284" filterUnits="userSpaceOnUse" color-interpolation-filters="sRGB">
<feFlood flood-opacity="0" result="BackgroundImageFix"/>
<feBlend mode="normal" in="SourceGraphic" in2="BackgroundImageFix" result="shape"/>
<feGaussianBlur stdDeviation="2.6793" result="effect1_foregroundBlur_5002_3412"/>
</filter>
<filter id="filter2_b_5002_3412" x="2.12436" y="-3.27481" width="34.1605" height="34.5709" filterUnits="userSpaceOnUse" color-interpolation-filters="sRGB">
<feFlood flood-opacity="0" result="BackgroundImageFix"/>
<feGaussianBlur in="BackgroundImageFix" stdDeviation="3.21516"/>
<feComposite in2="SourceAlpha" operator="in" result="effect1_backgroundBlur_5002_3412"/>
<feBlend mode="normal" in="SourceGraphic" in2="effect1_backgroundBlur_5002_3412" result="shape"/>
</filter>
<linearGradient id="paint0_linear_5002_3412" x1="3.70912" y1="12.8466" x2="19.4349" y2="17.4741" gradientUnits="userSpaceOnUse">
<stop stop-color="#FFBD12"/>
<stop offset="1" stop-color="#FFCD1A"/>
</linearGradient>
<clipPath id="clip0_5002_3412">
<rect width="30" height="30" fill="white"/>
</clipPath>
</defs>
</svg>
