<svg width="17" height="16" viewBox="0 0 17 16" fill="none" xmlns="http://www.w3.org/2000/svg">
<path fill-rule="evenodd" clip-rule="evenodd" d="M2.76415 2.21795C3.03518 1.6759 3.5892 1.3335 4.19523 1.3335H12.8842C13.4902 1.3335 14.0442 1.6759 14.3153 2.21795L14.9249 3.43711C15.11 3.80739 15.2064 4.21569 15.2064 4.62968V12.6668C15.2064 13.7714 14.3109 14.6668 13.2064 14.6668H3.87305C2.76848 14.6668 1.87305 13.7714 1.87305 12.6668V4.62968C1.87305 4.21569 1.96943 3.80739 2.15457 3.43711L2.76415 2.21795ZM3.93981 2.61615C4.02816 2.43019 4.21566 2.31169 4.42154 2.31169H12.6584C12.8643 2.31169 13.0518 2.43019 13.1401 2.61615L13.7055 3.80624C13.7896 3.98318 13.6606 4.18734 13.4647 4.18734H3.61528C3.41938 4.18734 3.29035 3.98318 3.37442 3.80624L3.93981 2.61615ZM6.7652 6.80954C6.7652 6.51499 7.00398 6.2762 7.29854 6.2762H9.7807C10.0752 6.2762 10.314 6.51499 10.314 6.80954V9.49492H11.067C11.5658 9.49492 11.7916 10.1186 11.4084 10.438L8.88139 12.544C8.6836 12.7089 8.39628 12.7089 8.19849 12.544L5.67146 10.438C5.28828 10.1186 5.5141 9.49492 6.01291 9.49492H6.7652V6.80954Z" fill="#FF5757"/>
</svg>
